Preview_wght:wdth 4 GRAD-wght_575.00_wdth_100.00.ufo
<glyph name="asterisk" format="2">
  <advance width="866"/>
  <unicode hex="002A"/>
  <outline>
    <contour>
      <point x="437.9" y="657.35" type="qcurve" smooth="yes"/>
      <point x="377.85" y="657.35"/>
      <point x="321.55" y="738.3"/>
      <point x="336.2" y="791.8" type="qcurve" smooth="yes"/>
      <point x="414.25" y="1057.1" type="line"/>
      <point x="410.2" y="1060.45" type="line"/>
      <point x="217.8" y="860.1" type="line" smooth="yes"/>
      <point x="184.65" y="827.35"/>
      <point x="82.95" y="825.65"/>
      <point x="51.6" y="881.7" type="qcurve" smooth="yes"/>
      <point x="19.25" y="936.4"/>
      <point x="73.05" y="1023.65"/>
      <point x="118.2" y="1035.75" type="qcurve" smooth="yes"/>
      <point x="384.55" y="1101.05" type="line"/>
      <point x="383.55" y="1107.05" type="line"/>
      <point x="118.2" y="1173.65" type="line" smooth="yes"/>
      <point x="73.4" y="1185.75"/>
      <point x="19.25" y="1273.0"/>
      <point x="51.6" y="1329.05" type="qcurve" smooth="yes"/>
      <point x="82.95" y="1383.75"/>
      <point x="185.0" y="1382.4"/>
      <point x="217.8" y="1350.0" type="qcurve" smooth="yes"/>
      <point x="408.9" y="1148.95" type="line"/>
      <point x="413.25" y="1152.3" type="line"/>
      <point x="336.2" y="1417.95" type="line" smooth="yes"/>
      <point x="321.55" y="1474.1"/>
      <point x="379.85" y="1552.05"/>
      <point x="437.9" y="1552.05" type="qcurve" smooth="yes"/>
      <point x="497.95" y="1552.05"/>
      <point x="554.25" y="1471.45"/>
      <point x="539.6" y="1417.95" type="qcurve" smooth="yes"/>
      <point x="461.55" y="1153.0" type="line"/>
      <point x="466.6" y="1149.65" type="line"/>
      <point x="658.3" y="1350.0" type="line" smooth="yes"/>
      <point x="691.15" y="1382.4"/>
      <point x="792.85" y="1383.75"/>
      <point x="824.2" y="1328.05" type="qcurve" smooth="yes"/>
      <point x="856.55" y="1273.0"/>
      <point x="803.4" y="1185.75"/>
      <point x="757.6" y="1173.65" type="qcurve" smooth="yes"/>
      <point x="491.25" y="1109.05" type="line"/>
      <point x="492.25" y="1102.7" type="line"/>
      <point x="757.6" y="1036.1" type="line" smooth="yes"/>
      <point x="803.05" y="1023.65"/>
      <point x="856.55" y="936.4"/>
      <point x="824.2" y="880.7" type="qcurve" smooth="yes"/>
      <point x="792.85" y="825.65"/>
      <point x="691.15" y="827.0"/>
      <point x="658.3" y="859.75" type="qcurve" smooth="yes"/>
      <point x="467.6" y="1060.45" type="line"/>
      <point x="463.55" y="1057.1" type="line"/>
      <point x="539.95" y="791.8" type="line" smooth="yes"/>
      <point x="553.95" y="738.3"/>
      <point x="501.6" y="657.35"/>
    </contour>
  </outline>
</glyph>
<glyph name="one" format="2">
  <advance width="918"/>
  <unicode hex="0031"/>
  <outline>
    <contour>
      <point x="70.35" y="0.0" type="line"/>
      <point x="70.35" y="104.5" type="line"/>
      <point x="324.85" y="139.5" type="line"/>
      <point x="324.85" y="754.0" type="line"/>
      <point x="322.85" y="1339.05" type="line"/>
      <point x="68.35" y="1373.05" type="line"/>
      <point x="68.35" y="1487.55" type="line"/>
      <point x="584.75" y="1510.55" type="line"/>
      <point x="616.75" y="1475.55" type="line"/>
      <point x="610.75" y="754.0" type="line"/>
      <point x="610.75" y="139.5" type="line"/>
      <point x="865.25" y="104.5" type="line"/>
      <point x="865.25" y="0.0" type="line"/>
    </contour>
  </outline>
</glyph>
<glyph name="six" format="2">
  <advance width="1268"/>
  <unicode hex="0036"/>
  <outline>
    <contour>
      <point x="70.85" y="635.45" type="qcurve" smooth="yes"/>
      <point x="70.85" y="988.3"/>
      <point x="547.4" y="1491.1"/>
      <point x="972.15" y="1572.35" type="qcurve"/>
      <point x="995.55" y="1458.95" type="line"/>
      <point x="710.95" y="1379.95"/>
      <point x="367.95" y="986.15"/>
      <point x="367.95" y="627.55" type="qcurve" smooth="yes"/>
      <point x="367.95" y="345.05"/>
      <point x="544.35" y="97.05"/>
      <point x="682.8" y="97.05" type="qcurve" smooth="yes"/>
      <point x="794.4" y="97.05"/>
      <point x="932.15" y="281.6"/>
      <point x="932.15" y="459.45" type="qcurve" smooth="yes"/>
      <point x="932.15" y="639.7"/>
      <point x="795.6" y="794.05"/>
      <point x="690.3" y="794.05" type="qcurve" smooth="yes"/>
      <point x="628.1" y="794.05"/>
      <point x="555.85" y="776.8"/>
      <point x="527.45" y="767.2" type="qcurve"/>
      <point x="490.5" y="848.4" type="line"/>
      <point x="524.65" y="882.65"/>
      <point x="669.4" y="938.6"/>
      <point x="756.2" y="938.6" type="qcurve" smooth="yes"/>
      <point x="970.2" y="938.6"/>
      <point x="1218.8" y="701.4"/>
      <point x="1218.8" y="513.05" type="qcurve" smooth="yes"/>
      <point x="1218.8" y="259.75"/>
      <point x="917.2" y="-22.7"/>
      <point x="678.85" y="-22.7" type="qcurve" smooth="yes"/>
      <point x="405.05" y="-22.7"/>
      <point x="70.85" y="327.9"/>
    </contour>
  </outline>
</glyph>
<glyph name="equal" format="2">
  <advance width="1045"/>
  <unicode hex="003D"/>
  <outline>
    <contour>
      <point x="105.45" y="306.35" type="line"/>
      <point x="105.45" y="518.95" type="line"/>
      <point x="520.85" y="514.95" type="line"/>
      <point x="939.2" y="518.95" type="line"/>
      <point x="939.2" y="306.35" type="line"/>
      <point x="520.85" y="310.35" type="line"/>
    </contour>
    <contour>
      <point x="105.45" y="726.55" type="line"/>
      <point x="105.45" y="939.15" type="line"/>
      <point x="520.85" y="935.15" type="line"/>
      <point x="939.2" y="939.15" type="line"/>
      <point x="939.2" y="726.55" type="line"/>
      <point x="520.85" y="730.55" type="line"/>
    </contour>
  </outline>
</glyph>
<glyph name="H" format="2">
  <advance width="1811"/>
  <unicode hex="0048"/>
  <outline>
    <contour>
      <point x="68.0" y="0.0" type="line"/>
      <point x="68.0" y="110.5" type="line"/>
      <point x="265.5" y="145.5" type="line"/>
      <point x="267.5" y="754.0" type="line"/>
      <point x="265.5" y="1341.5" type="line"/>
      <point x="68.0" y="1375.5" type="line"/>
      <point x="68.0" y="1500.0" type="line"/>
      <point x="754.65" y="1500.0" type="line"/>
      <point x="754.65" y="1375.5" type="line"/>
      <point x="557.85" y="1341.5" type="line"/>
      <point x="555.85" y="754.0" type="line"/>
      <point x="557.85" y="145.5" type="line"/>
      <point x="754.65" y="110.5" type="line"/>
      <point x="754.65" y="0.0" type="line"/>
    </contour>
    <contour>
      <point x="412.55" y="709.0" type="line"/>
      <point x="412.55" y="851.5" type="line"/>
      <point x="905.7" y="843.5" type="line"/>
      <point x="1404.15" y="851.5" type="line"/>
      <point x="1404.15" y="709.0" type="line"/>
      <point x="905.7" y="709.0" type="line"/>
    </contour>
    <contour>
      <point x="1056.05" y="0.0" type="line"/>
      <point x="1056.05" y="110.5" type="line"/>
      <point x="1252.85" y="145.5" type="line"/>
      <point x="1254.85" y="754.0" type="line"/>
      <point x="1252.85" y="1341.5" type="line"/>
      <point x="1056.05" y="1375.5" type="line"/>
      <point x="1056.05" y="1500.0" type="line"/>
      <point x="1742.7" y="1500.0" type="line"/>
      <point x="1742.7" y="1375.5" type="line"/>
      <point x="1545.2" y="1341.5" type="line"/>
      <point x="1543.2" y="754.0" type="line"/>
      <point x="1545.2" y="145.5" type="line"/>
      <point x="1742.7" y="110.5" type="line"/>
      <point x="1742.7" y="0.0" type="line"/>
    </contour>
  </outline>
</glyph>
<glyph name="L" format="2">
  <advance width="1311"/>
  <unicode hex="004C"/>
  <outline>
    <contour>
      <point x="82.7" y="0.0" type="line"/>
      <point x="82.7" y="110.5" type="line"/>
      <point x="265.5" y="143.55" type="line"/>
      <point x="267.5" y="754.0" type="line"/>
      <point x="265.5" y="1341.5" type="line"/>
      <point x="68.0" y="1375.5" type="line"/>
      <point x="68.0" y="1500.0" type="line"/>
      <point x="771.35" y="1500.0" type="line"/>
      <point x="771.35" y="1375.5" type="line"/>
      <point x="558.2" y="1341.5" type="line"/>
      <point x="556.55" y="754.0" type="line"/>
      <point x="558.55" y="147.25" type="line"/>
      <point x="595.75" y="120.25" type="line"/>
      <point x="1080.15" y="120.25" type="line"/>
      <point x="1164.05" y="421.85" type="line"/>
      <point x="1302.85" y="421.85" type="line"/>
      <point x="1253.95" y="0.0" type="line"/>
    </contour>
  </outline>
</glyph>
<glyph name="Q" format="2">
  <advance width="1748"/>
  <unicode hex="0051"/>
  <outline>
    <contour>
      <point x="74.75" y="744.95" type="qcurve" smooth="yes"/>
      <point x="74.75" y="1070.1"/>
      <point x="527.7" y="1522.45"/>
      <point x="874.0" y="1522.45" type="qcurve" smooth="yes"/>
      <point x="1220.65" y="1522.45"/>
      <point x="1673.25" y="1099.1"/>
      <point x="1673.25" y="755.4" type="qcurve" smooth="yes"/>
      <point x="1673.25" y="412.75"/>
      <point x="1211.35" y="-21.75"/>
      <point x="875.75" y="-21.75" type="qcurve" smooth="yes"/>
      <point x="525.45" y="-21.75"/>
      <point x="74.75" y="413.05"/>
    </contour>
    <contour>
      <point x="388.6" y="774.45" type="qcurve" smooth="yes"/>
      <point x="389.9" y="477.6"/>
      <point x="656.3" y="112.45"/>
      <point x="872.35" y="112.45" type="qcurve" smooth="yes"/>
      <point x="1105.65" y="112.45"/>
      <point x="1356.35" y="442.5"/>
      <point x="1357.65" y="749.8" type="qcurve" smooth="yes"/>
      <point x="1358.95" y="1041.2"/>
      <point x="1093.65" y="1371.95"/>
      <point x="874.95" y="1371.95" type="qcurve" smooth="yes"/>
      <point x="639.05" y="1371.95"/>
      <point x="387.3" y="1073.85"/>
    </contour>
    <contour>
      <point x="292.35" y="-340.5" type="qcurve"/>
      <point x="218.75" y="-277.9" type="line"/>
      <point x="281.0" y="-163.9"/>
      <point x="465.65" y="-47.75"/>
      <point x="556.75" y="-40.35" type="qcurve"/>
      <point x="759.65" y="359.5" type="line"/>
      <point x="882.1" y="300.85" type="line"/>
      <point x="685.5" y="-66.9" type="line"/>
      <point x="1330.25" y="-252.3" type="line"/>
      <point x="1410.9" y="-252.3"/>
      <point x="1518.65" y="-168.15"/>
      <point x="1552.7" y="-104.35" type="qcurve"/>
      <point x="1645.85" y="-154.6" type="line"/>
      <point x="1598.65" y="-281.35"/>
      <point x="1437.85" y="-456.3"/>
      <point x="1296.05" y="-456.3" type="qcurve"/>
      <point x="560.65" y="-235.3" type="line"/>
      <point x="472.0" y="-235.3"/>
      <point x="348.65" y="-279.4"/>
    </contour>
  </outline>
</glyph>
<glyph name="S" format="2">
  <advance width="1158"/>
  <unicode hex="0053"/>
  <outline>
    <contour>
      <point x="51.85" y="-0.35" type="line"/>
      <point x="51.85" y="479.45" type="line"/>
      <point x="182.9" y="479.45" type="line"/>
      <point x="199.75" y="393.35" type="line" smooth="yes"/>
      <point x="227.05" y="256.75"/>
      <point x="434.75" y="120.55"/>
      <point x="579.85" y="120.55" type="qcurve" smooth="yes"/>
      <point x="727.9" y="120.55"/>
      <point x="875.5" y="252.25"/>
      <point x="875.5" y="358.45" type="qcurve" smooth="yes"/>
      <point x="875.5" y="478.8"/>
      <point x="695.7" y="601.35"/>
      <point x="498.65" y="674.25" type="qcurve" smooth="yes"/>
      <point x="287.65" y="751.6"/>
      <point x="90.05" y="952.95"/>
      <point x="90.05" y="1119.3" type="qcurve" smooth="yes"/>
      <point x="90.05" y="1293.5"/>
      <point x="333.4" y="1522.45"/>
      <point x="539.25" y="1522.45" type="qcurve" smooth="yes"/>
      <point x="650.55" y="1522.45"/>
      <point x="818.9" y="1463.15"/>
      <point x="873.05" y="1422.05" type="qcurve"/>
      <point x="897.2" y="1491.55" type="line"/>
      <point x="1011.7" y="1491.55" type="line"/>
      <point x="1011.7" y="1059.75" type="line"/>
      <point x="885.45" y="1059.75" type="line"/>
      <point x="866.0" y="1174.65" type="line" smooth="yes"/>
      <point x="848.85" y="1264.5"/>
      <point x="683.35" y="1368.15"/>
      <point x="559.7" y="1368.15" type="qcurve" smooth="yes"/>
      <point x="447.35" y="1368.15"/>
      <point x="327.05" y="1266.85"/>
      <point x="327.05" y="1181.1" type="qcurve" smooth="yes"/>
      <point x="327.05" y="1099.5"/>
      <point x="454.5" y="988.3"/>
      <point x="661.55" y="912.7" type="qcurve" smooth="yes"/>
      <point x="877.35" y="834.6"/>
      <point x="1121.1" y="619.5"/>
      <point x="1121.1" y="429.2" type="qcurve" smooth="yes"/>
      <point x="1121.1" y="228.5"/>
      <point x="848.85" y="-20.35"/>
      <point x="621.85" y="-20.35" type="qcurve" smooth="yes"/>
      <point x="484.1" y="-20.35"/>
      <point x="282.85" y="44.55"/>
      <point x="214.05" y="103.55" type="qcurve"/>
      <point x="169.15" y="-0.35" type="line"/>
    </contour>
  </outline>
</glyph>
<glyph name="U" format="2">
  <advance width="1637"/>
  <unicode hex="0055"/>
  <outline>
    <contour>
      <point x="50.35" y="1375.85" type="line"/>
      <point x="50.35" y="1500.0" type="line"/>
      <point x="730.5" y="1500.0" type="line"/>
      <point x="730.5" y="1375.85" type="line"/>
      <point x="540.65" y="1341.85" type="line"/>
      <point x="536.35" y="794.0" type="line"/>
      <point x="539.65" y="475.75" type="line" smooth="yes"/>
      <point x="541.3" y="295.65"/>
      <point x="743.55" y="138.5"/>
      <point x="909.6" y="138.5" type="qcurve" smooth="yes"/>
      <point x="1061.15" y="138.5"/>
      <point x="1275.65" y="312.4"/>
      <point x="1276.65" y="494.0" type="qcurve" smooth="yes"/>
      <point x="1278.3" y="794.0" type="line"/>
      <point x="1276.65" y="1341.85" type="line"/>
      <point x="1076.15" y="1375.85" type="line"/>
      <point x="1076.15" y="1500.0" type="line"/>
      <point x="1616.25" y="1500.0" type="line"/>
      <point x="1616.25" y="1375.85" type="line"/>
      <point x="1422.95" y="1341.85" type="line"/>
      <point x="1421.3" y="794.0" type="line"/>
      <point x="1423.95" y="487.75" type="line" smooth="yes"/>
      <point x="1426.6" y="233.35"/>
      <point x="1106.3" y="-29.25"/>
      <point x="848.4" y="-29.25" type="qcurve" smooth="yes"/>
      <point x="569.7" y="-29.25"/>
      <point x="239.35" y="233.95"/>
      <point x="241.0" y="475.75" type="qcurve" smooth="yes"/>
      <point x="242.65" y="794.0" type="line"/>
      <point x="241.0" y="1341.85" type="line"/>
    </contour>
  </outline>
</glyph>
<glyph name="backslash" format="2">
  <advance width="751"/>
  <unicode hex="005C"/>
  <outline>
    <contour>
      <point x="-30.6" y="1505.0" type="line"/>
      <point x="170.95" y="1572.5" type="line"/>
      <point x="787.3" y="-102.25" type="line"/>
      <point x="585.4" y="-169.05" type="line"/>
    </contour>
  </outline>
</glyph>
<glyph name="a" format="2">
  <advance width="1222"/>
  <unicode hex="0061"/>
  <outline>
    <contour>
      <point x="70.45" y="257.85" type="qcurve" smooth="yes"/>
      <point x="70.45" y="404.3"/>
      <point x="406.05" y="596.75"/>
      <point x="839.6" y="639.55" type="qcurve"/>
      <point x="848.25" y="544.15" type="line"/>
      <point x="574.15" y="514.1"/>
      <point x="347.75" y="394.85"/>
      <point x="348.45" y="268.6" type="qcurve" smooth="yes"/>
      <point x="348.8" y="198.45"/>
      <point x="439.2" y="125.6"/>
      <point x="503.45" y="125.6" type="qcurve" smooth="yes"/>
      <point x="570.0" y="125.6"/>
      <point x="711.95" y="206.05"/>
      <point x="740.7" y="256.25" type="qcurve"/>
      <point x="742.7" y="615.25" type="line" smooth="yes"/>
      <point x="743.7" y="783.85"/>
      <point x="635.95" y="899.0"/>
      <point x="532.55" y="899.0" type="qcurve" smooth="yes"/>
      <point x="454.1" y="899.0"/>
      <point x="341.2" y="863.65"/>
      <point x="314.1" y="837.95" type="qcurve"/>
      <point x="333.0" y="819.05"/>
      <point x="355.95" y="774.7"/>
      <point x="358.95" y="751.9" type="qcurve" smooth="yes"/>
      <point x="365.6" y="706.25"/>
      <point x="313.2" y="646.0"/>
      <point x="262.1" y="644.25" type="qcurve" smooth="yes"/>
      <point x="209.95" y="642.5"/>
      <point x="138.4" y="723.0"/>
      <point x="138.4" y="792.2" type="qcurve" smooth="yes"/>
      <point x="138.4" y="892.9"/>
      <point x="391.75" y="1041.9"/>
      <point x="595.7" y="1041.9" type="qcurve" smooth="yes"/>
      <point x="808.55" y="1041.9"/>
      <point x="1017.0" y="852.1"/>
      <point x="1017.7" y="632.55" type="qcurve" smooth="yes"/>
      <point x="1018.75" y="129.0" type="line"/>
      <point x="1171.05" y="94.0" type="line"/>
      <point x="1171.05" y="0.0" type="line"/>
      <point x="810.4" y="0.0" type="line"/>
      <point x="758.4" y="60.35" type="line"/>
      <point x="744.55" y="133.25" type="line"/>
      <point x="701.45" y="72.4"/>
      <point x="511.1" y="-14.4"/>
      <point x="393.65" y="-14.4" type="qcurve" smooth="yes"/>
      <point x="240.0" y="-14.4"/>
      <point x="70.45" y="142.7"/>
    </contour>
  </outline>
</glyph>
<glyph name="b" format="2">
  <advance width="1306"/>
  <unicode hex="0062"/>
  <outline>
    <contour>
      <point x="158.5" y="0.0" type="line"/>
      <point x="168.45" y="444.5" type="line"/>
      <point x="160.6" y="1362.0" type="line"/>
      <point x="0.25" y="1392.0" type="line"/>
      <point x="0.25" y="1500.0" type="line"/>
      <point x="371.0" y="1534.0" type="line"/>
      <point x="402.35" y="1534.0" type="line"/>
      <point x="440.5" y="1496.75" type="line"/>
      <point x="438.85" y="876.35" type="line"/>
      <point x="489.2" y="948.8"/>
      <point x="664.85" y="1038.2"/>
      <point x="789.5" y="1038.2" type="qcurve" smooth="yes"/>
      <point x="987.6" y="1038.2"/>
      <point x="1245.3" y="768.35"/>
      <point x="1245.3" y="540.15" type="qcurve" smooth="yes"/>
      <point x="1245.3" y="291.6"/>
      <point x="977.9" y="-12.0"/>
      <point x="743.25" y="-12.0" type="qcurve" smooth="yes"/>
      <point x="639.95" y="-12.0"/>
      <point x="478.85" y="48.0"/>
      <point x="433.2" y="88.35" type="qcurve"/>
      <point x="346.5" y="0.0" type="line"/>
    </contour>
    <contour>
      <point x="431.65" y="481.2" type="line"/>
      <point x="439.2" y="254.9" type="line"/>
      <point x="469.35" y="199.05"/>
      <point x="599.9" y="117.25"/>
      <point x="687.35" y="117.25" type="qcurve" smooth="yes"/>
      <point x="807.95" y="117.25"/>
      <point x="945.1" y="322.8"/>
      <point x="945.1" y="507.8" type="qcurve" smooth="yes"/>
      <point x="945.1" y="688.0"/>
      <point x="813.5" y="874.75"/>
      <point x="692.0" y="874.75" type="qcurve" smooth="yes"/>
      <point x="602.9" y="874.75"/>
      <point x="477.0" y="795.65"/>
      <point x="439.55" y="733.5" type="qcurve"/>
    </contour>
  </outline>
</glyph>
<glyph name="f" format="2">
  <advance width="722"/>
  <unicode hex="0066"/>
  <outline>
    <contour>
      <point x="46.65" y="0.0" type="line"/>
      <point x="46.65" y="94.0" type="line"/>
      <point x="205.55" y="129.0" type="line"/>
      <point x="208.95" y="535.75" type="line"/>
      <point x="207.0" y="863.1" type="line"/>
      <point x="52.5" y="873.7" type="line"/>
      <point x="52.5" y="980.7" type="line"/>
      <point x="208.65" y="1001.5" type="line"/>
      <point x="210.55" y="1256.95" type="line" smooth="yes"/>
      <point x="210.5" y="1382.4"/>
      <point x="360.0" y="1535.25"/>
      <point x="494.3" y="1535.25" type="qcurve" smooth="yes"/>
      <point x="557.3" y="1535.25"/>
      <point x="656.05" y="1519.35"/>
      <point x="690.3" y="1507.85" type="qcurve" smooth="yes"/>
      <point x="711.05" y="1500.45" type="line"/>
      <point x="700.65" y="1383.45" type="line"/>
      <point x="684.1" y="1387.8" type="line" smooth="yes"/>
      <point x="671.05" y="1391.85"/>
      <point x="634.35" y="1397.0"/>
      <point x="613.6" y="1397.0" type="qcurve" smooth="yes"/>
      <point x="549.85" y="1397.0"/>
      <point x="483.5" y="1313.85"/>
      <point x="484.15" y="1246.1" type="qcurve" smooth="yes"/>
      <point x="485.1" y="998.65" type="line"/>
      <point x="700.0" y="998.65" type="line"/>
      <point x="700.0" y="873.3" type="line"/>
      <point x="484.75" y="873.3" type="line"/>
      <point x="485.7" y="535.75" type="line"/>
      <point x="491.65" y="129.0" type="line"/>
      <point x="675.35" y="94.0" type="line"/>
      <point x="675.35" y="0.0" type="line"/>
    </contour>
  </outline>
</glyph>
<glyph name="m" format="2">
  <advance width="2093"/>
  <unicode hex="006D"/>
  <outline>
    <contour>
      <point x="60.95" y="0.0" type="line"/>
      <point x="60.95" y="94.0" type="line"/>
      <point x="208.95" y="129.0" type="line"/>
      <point x="210.95" y="535.75" type="line"/>
      <point x="208.95" y="847.25" type="line"/>
      <point x="60.95" y="877.25" type="line"/>
      <point x="60.95" y="984.9" type="line"/>
      <point x="423.3" y="1021.7" type="line"/>
      <point x="458.3" y="994.7" type="line"/>
      <point x="482.6" y="870.45" type="line"/>
      <point x="542.75" y="946.55"/>
      <point x="744.35" y="1038.85"/>
      <point x="862.85" y="1038.85" type="qcurve" smooth="yes"/>
      <point x="991.5" y="1038.85"/>
      <point x="1147.85" y="943.85"/>
      <point x="1175.3" y="859.25" type="qcurve"/>
      <point x="1233.8" y="940.3"/>
      <point x="1439.6" y="1038.85"/>
      <point x="1561.7" y="1038.85" type="qcurve" smooth="yes"/>
      <point x="1727.95" y="1038.85"/>
      <point x="1891.35" y="883.9"/>
      <point x="1891.35" y="753.9" type="qcurve" smooth="yes"/>
      <point x="1891.0" y="688.7"/>
      <point x="1888.1" y="557.1"/>
      <point x="1888.1" y="538.9" type="qcurve" smooth="yes"/>
      <point x="1893.45" y="128.65" type="line"/>
      <point x="2042.15" y="94.0" type="line"/>
      <point x="2042.15" y="0.0" type="line"/>
      <point x="1472.0" y="0.0" type="line"/>
      <point x="1472.0" y="94.0" type="line"/>
      <point x="1611.1" y="129.0" type="line"/>
      <point x="1613.45" y="521.05" type="line"/>
      <point x="1613.45" y="688.7" type="line" smooth="yes"/>
      <point x="1613.45" y="766.0"/>
      <point x="1517.95" y="854.95"/>
      <point x="1436.4" y="854.95" type="qcurve" smooth="yes"/>
      <point x="1361.4" y="854.95"/>
      <point x="1232.1" y="787.85"/>
      <point x="1190.75" y="729.25" type="qcurve"/>
      <point x="1188.15" y="669.7"/>
      <point x="1186.8" y="537.0"/>
      <point x="1186.8" y="525.95" type="qcurve" smooth="yes"/>
      <point x="1191.1" y="129.0" type="line"/>
      <point x="1323.35" y="94.0" type="line"/>
      <point x="1323.35" y="0.0" type="line"/>
      <point x="771.75" y="0.0" type="line"/>
      <point x="771.75" y="94.0" type="line"/>
      <point x="910.85" y="129.0" type="line"/>
      <point x="912.85" y="535.75" type="line"/>
      <point x="912.85" y="700.25" type="line" smooth="yes"/>
      <point x="912.85" y="771.6"/>
      <point x="814.9" y="854.6"/>
      <point x="739.65" y="854.95" type="qcurve" smooth="yes"/>
      <point x="663.6" y="855.3"/>
      <point x="528.9" y="785.9"/>
      <point x="487.2" y="725.0" type="qcurve"/>
      <point x="486.2" y="535.75" type="line"/>
      <point x="488.2" y="129.0" type="line"/>
      <point x="614.3" y="94.0" type="line"/>
      <point x="614.3" y="0.0" type="line"/>
    </contour>
  </outline>
</glyph>
<glyph name="p" format="2">
  <advance width="1336"/>
  <unicode hex="0070"/>
  <outline>
    <contour>
      <point x="44.55" y="-480.0" type="line"/>
      <point x="44.55" y="-386.35" type="line"/>
      <point x="187.55" y="-351.35" type="line"/>
      <point x="189.55" y="427.0" type="line"/>
      <point x="187.55" y="847.25" type="line"/>
      <point x="39.2" y="877.25" type="line"/>
      <point x="39.2" y="984.9" type="line"/>
      <point x="413.6" y="1018.9" type="line"/>
      <point x="448.6" y="991.9" type="line"/>
      <point x="467.1" y="878.1" type="line"/>
      <point x="517.1" y="949.5"/>
      <point x="691.7" y="1038.2"/>
      <point x="816.35" y="1038.2" type="qcurve" smooth="yes"/>
      <point x="1014.45" y="1038.2"/>
      <point x="1272.8" y="768.35"/>
      <point x="1272.8" y="540.15" type="qcurve" smooth="yes"/>
      <point x="1272.8" y="291.6"/>
      <point x="1004.75" y="-12.0"/>
      <point x="779.2" y="-12.0" type="qcurve" smooth="yes"/>
      <point x="668.1" y="-12.0"/>
      <point x="510.1" y="48.0"/>
      <point x="465.1" y="89.0" type="qcurve"/>
      <point x="467.1" y="-351.35" type="line"/>
      <point x="626.1" y="-386.35" type="line"/>
      <point x="626.1" y="-480.0" type="line"/>
    </contour>
    <contour>
      <point x="464.75" y="256.85" type="line"/>
      <point x="494.9" y="200.35"/>
      <point x="626.1" y="117.25"/>
      <point x="714.2" y="117.25" type="qcurve" smooth="yes"/>
      <point x="834.8" y="117.25"/>
      <point x="972.6" y="322.8"/>
      <point x="972.6" y="507.8" type="qcurve" smooth="yes"/>
      <point x="972.6" y="688.0"/>
      <point x="840.35" y="874.75"/>
      <point x="718.85" y="874.75" type="qcurve" smooth="yes"/>
      <point x="631.05" y="874.75"/>
      <point x="503.85" y="795.0"/>
      <point x="465.75" y="732.85" type="qcurve"/>
      <point x="462.4" y="435.05" type="line"/>
    </contour>
  </outline>
</glyph>
<glyph name="q" format="2">
  <advance width="1330"/>
  <unicode hex="0071"/>
  <outline>
    <contour>
      <point x="63.45" y="489.9" type="qcurve" smooth="yes"/>
      <point x="63.45" y="743.7"/>
      <point x="357.65" y="1037.5"/>
      <point x="586.8" y="1037.5" type="qcurve" smooth="yes"/>
      <point x="675.05" y="1037.5"/>
      <point x="833.7" y="990.6"/>
      <point x="885.2" y="949.8" type="qcurve"/>
      <point x="945.7" y="1025.75" type="line"/>
      <point x="1294.3" y="990.75" type="line"/>
      <point x="1294.3" y="883.75" type="line"/>
      <point x="1154.4" y="853.95" type="line"/>
      <point x="1147.75" y="436.75" type="line"/>
      <point x="1149.4" y="-351.35" type="line"/>
      <point x="1298.25" y="-386.35" type="line"/>
      <point x="1298.25" y="-480.0" type="line"/>
      <point x="697.2" y="-480.0" type="line"/>
      <point x="697.2" y="-386.35" type="line"/>
      <point x="866.7" y="-352.05" type="line"/>
      <point x="873.05" y="122.25" type="line"/>
      <point x="817.95" y="62.4"/>
      <point x="643.05" y="-9.0"/>
      <point x="526.8" y="-9.0" type="qcurve" smooth="yes"/>
      <point x="333.6" y="-9.0"/>
      <point x="63.45" y="253.65"/>
    </contour>
    <contour>
      <point x="364.0" y="513.85" type="qcurve" smooth="yes"/>
      <point x="364.0" y="321.4"/>
      <point x="508.4" y="141.15"/>
      <point x="625.7" y="141.15" type="qcurve" smooth="yes"/>
      <point x="709.2" y="141.15"/>
      <point x="836.7" y="207.95"/>
      <point x="875.1" y="264.15" type="qcurve"/>
      <point x="876.4" y="806.2" type="line"/>
      <point x="845.6" y="852.0"/>
      <point x="732.35" y="906.15"/>
      <point x="649.3" y="906.15" type="qcurve" smooth="yes"/>
      <point x="523.05" y="906.15"/>
      <point x="364.0" y="703.2"/>
    </contour>
  </outline>
</glyph>
<glyph name="bar" format="2">
  <advance width="653"/>
  <unicode hex="007C"/>
  <outline>
    <contour>
      <point x="200.2" y="-538.6" type="line"/>
      <point x="206.35" y="-58.0" type="line"/>
      <point x="215.85" y="250.0" type="line"/>
      <point x="213.85" y="830.0" type="line"/>
      <point x="204.4" y="1138.0" type="line"/>
      <point x="198.9" y="1481.4" type="line"/>
      <point x="457.05" y="1548.6" type="line"/>
      <point x="449.6" y="1138.0" type="line"/>
      <point x="437.5" y="830.0" type="line"/>
      <point x="439.5" y="250.0" type="line"/>
      <point x="450.25" y="-58.0" type="line"/>
      <point x="455.75" y="-471.4" type="line"/>
    </contour>
  </outline>
</glyph>
<glyph name="exclamdown" format="2">
  <advance width="662"/>
  <unicode hex="00A1"/>
  <outline>
    <contour>
      <point x="501.3" y="1184.0" type="qcurve" smooth="yes"/>
      <point x="501.3" y="1116.9"/>
      <point x="404.9" y="1019.35"/>
      <point x="329.3" y="1019.35" type="qcurve" smooth="yes"/>
      <point x="253.7" y="1019.35"/>
      <point x="157.3" y="1116.9"/>
      <point x="157.3" y="1184.0" type="qcurve" smooth="yes"/>
      <point x="157.3" y="1250.45"/>
      <point x="253.7" y="1348.0"/>
      <point x="329.3" y="1348.0" type="qcurve" smooth="yes"/>
      <point x="404.9" y="1348.0"/>
      <point x="501.3" y="1250.45"/>
    </contour>
    <contour>
      <point x="469.15" y="-65.95" type="line" smooth="yes"/>
      <point x="472.5" y="-139.9"/>
      <point x="400.65" y="-236.7"/>
      <point x="332.7" y="-237.35" type="qcurve" smooth="yes"/>
      <point x="264.4" y="-238.35"/>
      <point x="187.85" y="-141.2"/>
      <point x="191.2" y="-66.6" type="qcurve" smooth="yes"/>
      <point x="204.5" y="218.0" type="line"/>
      <point x="246.5" y="526.0" type="line"/>
      <point x="273.5" y="870.0" type="line"/>
      <point x="388.5" y="870.0" type="line"/>
      <point x="415.5" y="526.0" type="line"/>
      <point x="455.85" y="218.0" type="line"/>
    </contour>
  </outline>
</glyph>
<glyph name="threesuperior" format="2">
  <advance width="773"/>
  <unicode hex="00B3"/>
  <outline>
    <contour>
      <point x="44.8" y="739.0" type="qcurve"/>
      <point x="95.8" y="846.0" type="line"/>
      <point x="147.8" y="804.75"/>
      <point x="254.0" y="769.0"/>
      <point x="328.0" y="769.0" type="qcurve" smooth="yes"/>
      <point x="404.55" y="769.0"/>
      <point x="494.05" y="837.25"/>
      <point x="494.05" y="913.25" type="qcurve" smooth="yes"/>
      <point x="494.05" y="987.25"/>
      <point x="374.8" y="1053.75"/>
      <point x="250.8" y="1053.75" type="qcurve" smooth="yes"/>
      <point x="219.8" y="1053.75" type="line"/>
      <point x="203.8" y="1157.85" type="line"/>
      <point x="266.8" y="1160.85" type="line" smooth="yes"/>
      <point x="374.55" y="1166.15"/>
      <point x="470.8" y="1238.25"/>
      <point x="470.8" y="1301.6" type="qcurve" smooth="yes"/>
      <point x="470.8" y="1352.8"/>
      <point x="408.9" y="1402.0"/>
      <point x="342.3" y="1402.0" type="qcurve" smooth="yes"/>
      <point x="276.3" y="1402.0"/>
      <point x="180.9" y="1370.15"/>
      <point x="129.8" y="1338.95" type="qcurve"/>
      <point x="88.8" y="1422.0" type="line"/>
      <point x="143.8" y="1468.0"/>
      <point x="292.95" y="1520.0"/>
      <point x="397.3" y="1520.0" type="qcurve" smooth="yes"/>
      <point x="528.8" y="1520.0"/>
      <point x="674.1" y="1418.0"/>
      <point x="674.8" y="1337.0" type="qcurve" smooth="yes"/>
      <point x="675.5" y="1249.9"/>
      <point x="558.8" y="1142.0"/>
      <point x="444.8" y="1118.0" type="qcurve"/>
      <point x="444.8" y="1114.0" type="line"/>
      <point x="563.8" y="1111.0"/>
      <point x="699.8" y="1001.0"/>
      <point x="699.8" y="905.0" type="qcurve" smooth="yes"/>
      <point x="699.8" y="783.0"/>
      <point x="504.2" y="649.0"/>
      <point x="345.8" y="649.0" type="qcurve" smooth="yes"/>
      <point x="259.8" y="649.0"/>
      <point x="96.8" y="697.0"/>
    </contour>
  </outline>
</glyph>
<glyph name="acute" format="2">
  <advance width="1024"/>
  <unicode hex="00B4"/>
  <outline>
    <contour>
      <point x="775.35" y="1477.7" type="qcurve" smooth="yes"/>
      <point x="775.35" y="1431.75"/>
      <point x="731.85" y="1376.1"/>
      <point x="685.95" y="1346.0" type="qcurve" smooth="yes"/>
      <point x="401.35" y="1162.45" type="line"/>
      <point x="322.45" y="1242.65" type="line"/>
      <point x="500.7" y="1455.65" type="line" smooth="yes"/>
      <point x="538.2" y="1501.7"/>
      <point x="625.5" y="1570.05"/>
      <point x="667.05" y="1570.05" type="qcurve" smooth="yes"/>
      <point x="707.0" y="1570.05"/>
      <point x="775.35" y="1515.85"/>
    </contour>
  </outline>
</glyph>
<glyph name="onesuperior" format="2">
  <advance width="768"/>
  <unicode hex="00B9"/>
  <outline>
    <contour>
      <point x="114.0" y="670.0" type="line"/>
      <point x="114.0" y="761.0" type="line"/>
      <point x="297.9" y="791.0" type="line"/>
      <point x="300.9" y="1109.0" type="line"/>
      <point x="297.9" y="1363.0" type="line"/>
      <point x="112.0" y="1383.75" type="line"/>
      <point x="112.0" y="1478.25" type="line"/>
      <point x="468.6" y="1511.25" type="line"/>
      <point x="500.6" y="1476.25" type="line"/>
      <point x="494.6" y="1109.0" type="line"/>
      <point x="496.6" y="791.0" type="line"/>
      <point x="681.5" y="761.0" type="line"/>
      <point x="681.5" y="670.0" type="line"/>
    </contour>
  </outline>
</glyph>
<glyph name="ordmasculine" format="2">
  <advance width="1106"/>
  <unicode hex="00BA"/>
  <outline>
    <contour>
      <point x="60.8" y="1093.65" type="qcurve" smooth="yes"/>
      <point x="60.8" y="1285.95"/>
      <point x="322.25" y="1543.05"/>
      <point x="550.9" y="1543.05" type="qcurve" smooth="yes"/>
      <point x="780.55" y="1543.05"/>
      <point x="1045.0" y="1302.95"/>
      <point x="1045.0" y="1098.65" type="qcurve" smooth="yes"/>
      <point x="1045.0" y="907.7"/>
      <point x="785.2" y="644.25"/>
      <point x="556.25" y="644.25" type="qcurve" smooth="yes"/>
      <point x="326.6" y="644.25"/>
      <point x="60.8" y="887.7"/>
    </contour>
    <contour>
      <point x="319.3" y="1108.9" type="qcurve" smooth="yes"/>
      <point x="319.65" y="941.75"/>
      <point x="445.75" y="740.75"/>
      <point x="548.9" y="740.75" type="qcurve" smooth="yes"/>
      <point x="660.0" y="740.75"/>
      <point x="780.85" y="922.8"/>
      <point x="780.85" y="1096.6" type="qcurve" smooth="yes"/>
      <point x="780.85" y="1258.4"/>
      <point x="654.05" y="1437.75"/>
      <point x="550.9" y="1437.75" type="qcurve" smooth="yes"/>
      <point x="438.15" y="1437.75"/>
      <point x="318.3" y="1276.35"/>
    </contour>
  </outline>
</glyph>
<glyph name="guillemetright" format="2">
  <advance width="1378"/>
  <unicode hex="00BB"/>
  <outline>
    <contour>
      <point x="1348.05" y="583.5" type="line"/>
      <point x="1267.2" y="534.8"/>
      <point x="770.2" y="223.6"/>
      <point x="702.05" y="180.0" type="qcurve" smooth="yes"/>
      <point x="619.8" y="126.9"/>
      <point x="530.8" y="251.9"/>
      <point x="609.05" y="305.6" type="qcurve" smooth="yes"/>
      <point x="718.6" y="381.15"/>
      <point x="1032.9" y="583.4"/>
      <point x="1064.3" y="600.8" type="qcurve"/>
      <point x="1033.6" y="621.4"/>
      <point x="697.0" y="846.85"/>
      <point x="605.05" y="910.5" type="qcurve" smooth="yes"/>
      <point x="528.15" y="963.25"/>
      <point x="602.7" y="1087.6"/>
      <point x="683.05" y="1044.0" type="qcurve" smooth="yes"/>
      <point x="747.3" y="1009.65"/>
      <point x="1273.05" y="678.5"/>
      <point x="1348.05" y="630.5" type="qcurve"/>
    </contour>
    <contour>
      <point x="832.4" y="583.5" type="line"/>
      <point x="751.55" y="534.8"/>
      <point x="254.55" y="223.6"/>
      <point x="186.4" y="180.0" type="qcurve" smooth="yes"/>
      <point x="104.15" y="126.9"/>
      <point x="15.149999999999999" y="251.9"/>
      <point x="93.4" y="305.6" type="qcurve" smooth="yes"/>
      <point x="202.95" y="381.15"/>
      <point x="517.25" y="583.4"/>
      <point x="548.65" y="600.8" type="qcurve"/>
      <point x="517.95" y="621.4"/>
      <point x="181.35" y="846.85"/>
      <point x="89.4" y="910.5" type="qcurve" smooth="yes"/>
      <point x="12.5" y="963.25"/>
      <point x="87.05" y="1087.6"/>
      <point x="167.4" y="1044.0" type="qcurve" smooth="yes"/>
      <point x="231.65" y="1009.65"/>
      <point x="757.4" y="678.5"/>
      <point x="832.4" y="630.5" type="qcurve"/>
    </contour>
  </outline>
</glyph>
<glyph name="oe" format="2">
  <advance width="2008"/>
  <unicode hex="0153"/>
  <outline>
    <contour>
      <point x="59.8" y="508.75" type="qcurve" smooth="yes"/>
      <point x="59.8" y="736.6"/>
      <point x="384.3" y="1040.9"/>
      <point x="647.45" y="1040.9" type="qcurve" smooth="yes"/>
      <point x="802.1" y="1040.9"/>
      <point x="1021.4" y="930.0"/>
      <point x="1078.2" y="863.4" type="qcurve"/>
      <point x="1088.8" y="863.4" type="line"/>
      <point x="1132.9" y="931.6"/>
      <point x="1324.9" y="1041.25"/>
      <point x="1456.95" y="1041.25" type="qcurve" smooth="yes"/>
      <point x="1679.6" y="1041.25"/>
      <point x="1929.25" y="806.3"/>
      <point x="1948.9" y="597.1" type="qcurve"/>
      <point x="1948.9" y="522.75" type="line"/>
      <point x="1167.65" y="522.75" type="line"/>
      <point x="1167.65" y="631.35" type="line"/>
      <point x="1696.9" y="631.35" type="line"/>
      <point x="1684.15" y="775.25"/>
      <point x="1563.05" y="913.25"/>
      <point x="1461.55" y="913.25" type="qcurve" smooth="yes"/>
      <point x="1342.1" y="913.25"/>
      <point x="1211.1" y="727.65"/>
      <point x="1212.1" y="532.6" type="qcurve" smooth="yes"/>
      <point x="1213.1" y="328.45"/>
      <point x="1393.25" y="129.7"/>
      <point x="1551.3" y="129.7" type="qcurve" smooth="yes"/>
      <point x="1657.8" y="129.7"/>
      <point x="1805.05" y="183.55"/>
      <point x="1851.8" y="224.4" type="qcurve"/>
      <point x="1911.2" y="148.3" type="line"/>
      <point x="1861.75" y="78.65"/>
      <point x="1654.95" y="-23.75"/>
      <point x="1485.85" y="-23.75" type="qcurve" smooth="yes"/>
      <point x="1353.25" y="-23.75"/>
      <point x="1120.85" y="84.2"/>
      <point x="1065.55" y="162.6" type="qcurve"/>
      <point x="1060.5" y="162.6" type="line"/>
      <point x="1015.8" y="90.1"/>
      <point x="797.95" y="-23.75"/>
      <point x="654.15" y="-23.75" type="qcurve" smooth="yes"/>
      <point x="390.0" y="-23.75"/>
      <point x="59.8" y="264.55"/>
    </contour>
    <contour>
      <point x="357.4" y="527.0" type="qcurve" smooth="yes"/>
      <point x="358.4" y="329.9"/>
      <point x="515.1" y="97.45"/>
      <point x="646.5" y="97.45" type="qcurve" smooth="yes"/>
      <point x="787.85" y="97.45"/>
      <point x="937.95" y="308.25"/>
      <point x="937.95" y="513.0" type="qcurve" smooth="yes"/>
      <point x="937.95" y="703.1"/>
      <point x="780.9" y="910.2"/>
      <point x="648.5" y="910.2" type="qcurve" smooth="yes"/>
      <point x="505.5" y="910.2"/>
      <point x="356.4" y="722.75"/>
    </contour>
  </outline>
</glyph>
<glyph name="breve" format="2">
  <advance width="1024"/>
  <unicode hex="02D8"/>
  <outline>
    <contour>
      <point x="796.75" y="1513.4" type="qcurve"/>
      <point x="880.35" y="1463.55" type="line"/>
      <point x="866.3" y="1360.75"/>
      <point x="656.35" y="1171.0"/>
      <point x="513.0" y="1171.0" type="qcurve" smooth="yes"/>
      <point x="369.65" y="1171.0"/>
      <point x="163.9" y="1339.35"/>
      <point x="143.65" y="1460.55" type="qcurve"/>
      <point x="231.6" y="1514.4" type="line"/>
      <point x="265.7" y="1450.05"/>
      <point x="411.05" y="1342.65"/>
      <point x="514.0" y="1341.35" type="qcurve" smooth="yes"/>
      <point x="621.0" y="1342.65"/>
      <point x="768.0" y="1452.05"/>
    </contour>
  </outline>
</glyph>
<glyph name="breveinvertedcomb" format="2">
  <advance width="1024"/>
  <unicode hex="030F"/>
  <outline>
    <contour>
      <point x="228.55" y="1182.4" type="qcurve"/>
      <point x="144.95" y="1232.25" type="line"/>
      <point x="160.3" y="1335.05"/>
      <point x="370.25" y="1524.8"/>
      <point x="511.0" y="1524.8" type="qcurve"/>
      <point x="654.35" y="1524.8"/>
      <point x="864.65" y="1343.45"/>
      <point x="879.05" y="1233.3" type="qcurve"/>
      <point x="793.7" y="1182.05" type="line"/>
      <point x="762.85" y="1244.45"/>
      <point x="615.55" y="1354.45"/>
      <point x="511.3" y="1354.45" type="qcurve"/>
      <point x="406.25" y="1354.45"/>
      <point x="258.6" y="1243.75"/>
    </contour>
  </outline>
</glyph>
<glyph name="lownumeralsign" format="2">
  <advance width="439"/>
  <unicode hex="0375"/>
  <outline>
    <contour>
      <point x="234.89999999999998" y="-261.95" type="line"/>
      <point x="47.199999999999996" y="-232.75" type="line"/>
      <point x="9.299999999999997" y="-181.1" type="line"/>
      <point x="243.25" y="265.0" type="line"/>
      <point x="343.35" y="228.5" type="line"/>
    </contour>
  </outline>
</glyph>
<glyph name="Gamma" format="2">
  <advance width="1201"/>
  <unicode hex="0393"/>
  <outline>
    <contour>
      <point x="68.0" y="0.0" type="line"/>
      <point x="68.0" y="110.5" type="line"/>
      <point x="265.5" y="146.8" type="line"/>
      <point x="267.5" y="757.9" type="line"/>
      <point x="265.5" y="1341.5" type="line"/>
      <point x="68.0" y="1375.5" type="line"/>
      <point x="68.0" y="1500.0" type="line"/>
      <point x="1156.7" y="1500.0" type="line"/>
      <point x="1156.7" y="1067.1" type="line"/>
      <point x="1023.15" y="1067.1" type="line"/>
      <point x="983.3" y="1368.0" type="line"/>
      <point x="596.6" y="1368.0" type="line"/>
      <point x="557.85" y="1346.6" type="line"/>
      <point x="557.95" y="760.0" type="line"/>
      <point x="559.95" y="143.55" type="line"/>
      <point x="771.85" y="110.85" type="line"/>
      <point x="771.85" y="0.0" type="line"/>
    </contour>
  </outline>
</glyph>
<glyph name="Delta" format="2">
  <advance width="1555"/>
  <unicode hex="0394"/>
  <outline>
    <contour>
      <point x="135.0" y="0.0" type="line"/>
      <point x="135.0" y="117.35" type="line"/>
      <point x="320.0" y="593.2" type="line"/>
      <point x="654.0" y="1505.2" type="line"/>
      <point x="894.65" y="1505.2" type="line"/>
      <point x="1242.05" y="604.5" type="line"/>
      <point x="1431.6" y="117.35" type="line"/>
      <point x="1431.6" y="0.0" type="line"/>
    </contour>
    <contour>
      <point x="306.65" y="148.15" type="line"/>
      <point x="696.75" y="144.45" type="line"/>
      <point x="1103.2" y="148.8" type="line"/>
      <point x="957.5" y="547.1" type="line"/>
      <point x="703.0" y="1208.45" type="line"/>
      <point x="451.55" y="556.85" type="line"/>
    </contour>
  </outline>
</glyph>
<glyph name="Lambda" format="2">
  <advance width="1512"/>
  <unicode hex="039B"/>
  <outline>
    <contour>
      <point x="-12.75" y="0.0" type="line"/>
      <point x="-12.75" y="109.8" type="line"/>
      <point x="162.65" y="144.45" type="line"/>
      <point x="327.1" y="597.75" type="line"/>
      <point x="632.95" y="1505.2" type="line"/>
      <point x="873.6" y="1505.2" type="line"/>
      <point x="1183.15" y="627.9" type="line"/>
      <point x="1359.9" y="144.45" type="line"/>
      <point x="1524.6" y="109.8" type="line"/>
      <point x="1524.6" y="0.0" type="line"/>
      <point x="874.7" y="0.0" type="line"/>
      <point x="874.7" y="109.8" type="line"/>
      <point x="1044.25" y="141.85" type="line"/>
      <point x="905.1" y="562.7" type="line"/>
      <point x="681.95" y="1194.3" type="line"/>
      <point x="454.1" y="560.75" type="line"/>
      <point x="324.5" y="141.2" type="line"/>
      <point x="494.15" y="109.8" type="line"/>
      <point x="494.15" y="0.0" type="line"/>
    </contour>
  </outline>
</glyph>
<glyph name="Pi" format="2">
  <advance width="1771"/>
  <unicode hex="03A0"/>
  <outline>
    <contour>
      <point x="68.0" y="0.0" type="line"/>
      <point x="68.0" y="110.5" type="line"/>
      <point x="265.5" y="145.5" type="line"/>
      <point x="267.5" y="754.0" type="line"/>
      <point x="265.5" y="1341.5" type="line"/>
      <point x="68.0" y="1375.5" type="line"/>
      <point x="68.0" y="1500.0" type="line"/>
      <point x="1702.55" y="1500.0" type="line"/>
      <point x="1702.55" y="1375.5" type="line"/>
      <point x="1505.05" y="1341.5" type="line"/>
      <point x="1503.05" y="754.0" type="line"/>
      <point x="1505.05" y="145.5" type="line"/>
      <point x="1702.55" y="110.5" type="line"/>
      <point x="1702.55" y="0.0" type="line"/>
      <point x="1015.9" y="0.0" type="line"/>
      <point x="1015.9" y="110.5" type="line"/>
      <point x="1212.7" y="145.5" type="line"/>
      <point x="1214.7" y="754.0" type="line"/>
      <point x="1212.7" y="1340.8" type="line"/>
      <point x="880.8" y="1344.5" type="line"/>
      <point x="556.55" y="1340.8" type="line"/>
      <point x="555.85" y="754.0" type="line"/>
      <point x="557.85" y="145.5" type="line"/>
      <point x="754.65" y="110.5" type="line"/>
      <point x="754.65" y="0.0" type="line"/>
    </contour>
  </outline>
</glyph>
<glyph name="Sigma" format="2">
  <advance width="1265"/>
  <unicode hex="03A3"/>
  <outline>
    <contour>
      <point x="78.4" y="0.0" type="line"/>
      <point x="47.35" y="92.35" type="line"/>
      <point x="545.45" y="710.95" type="line"/>
      <point x="93.95" y="1385.5" type="line"/>
      <point x="93.95" y="1500.0" type="line"/>
      <point x="1203.85" y="1500.0" type="line"/>
      <point x="1203.85" y="1067.1" type="line"/>
      <point x="1070.3" y="1067.1" type="line"/>
      <point x="1030.45" y="1368.0" type="line"/>
      <point x="460.15" y="1368.0" type="line"/>
      <point x="451.5" y="1357.55" type="line"/>
      <point x="819.95" y="804.05" type="line"/>
      <point x="819.95" y="756.45" type="line"/>
      <point x="333.2" y="158.05" type="line"/>
      <point x="341.55" y="147.5" type="line"/>
      <point x="1038.05" y="147.5" type="line"/>
      <point x="1116.65" y="428.85" type="line"/>
      <point x="1254.05" y="428.85" type="line"/>
      <point x="1206.2" y="0.0" type="line"/>
    </contour>
  </outline>
</glyph>
<glyph name="gamma" format="2">
  <advance width="1140"/>
  <unicode hex="03B3"/>
  <guideline x="673.0" y="-40.0" angle="0" identifier="g2zcNzszsg"/>
  <outline>
    <contour>
      <point x="489.65" y="-480.0" type="line"/>
      <point x="451.85" y="-445.3" type="line"/>
      <point x="487.25" y="40.75" type="line"/>
      <point x="591.95" y="40.75" type="line"/>
      <point x="747.05" y="559.35" type="line"/>
      <point x="858.4" y="999.95" type="line"/>
      <point x="1078.2" y="1018.2" type="line"/>
      <point x="1116.35" y="983.5" type="line"/>
      <point x="918.25" y="520.45" type="line"/>
      <point x="669.35" y="-137.65" type="line"/>
      <point x="527.55" y="-138.35" type="line"/>
      <point x="296.15" y="473.65" type="line"/>
      <point x="169.9" y="797.85" type="line" smooth="yes"/>
      <point x="153.6" y="833.95"/>
      <point x="123.55" y="858.55"/>
      <point x="85.2" y="866.3" type="qcurve" smooth="yes"/>
      <point x="6.5" y="882.45" type="line"/>
      <point x="6.5" y="990.1" type="line"/>
      <point x="287.2" y="1024.45" type="line"/>
      <point x="343.4" y="1024.8"/>
      <point x="408.7" y="964.5"/>
      <point x="434.75" y="883.1" type="qcurve" smooth="yes"/>
      <point x="545.0" y="559.5" type="line"/>
      <point x="689.15" y="127.35" type="line"/>
      <point x="712.65" y="127.35" type="line"/>
      <point x="743.45" y="-457.95" type="line"/>
    </contour>
  </outline>
</glyph>
<glyph name="zeta" format="2">
  <advance width="957"/>
  <unicode hex="03B6"/>
  <outline>
    <contour>
      <point x="779.2" y="-313.0" type="line"/>
      <point x="742.75" y="-125.05" type="line" smooth="yes"/>
      <point x="732.7" y="-72.65"/>
      <point x="705.35" y="-35.8"/>
      <point x="652.3" y="-32.1" type="qcurve" smooth="yes"/>
      <point x="583.7" y="-27.65" type="line" smooth="yes"/>
      <point x="334.0" y="-10.950000000000001"/>
      <point x="59.8" y="186.6"/>
      <point x="59.8" y="383.35" type="qcurve" smooth="yes"/>
      <point x="59.8" y="561.8"/>
      <point x="319.85" y="944.15"/>
      <point x="697.65" y="1348.7" type="qcurve"/>
      <point x="704.15" y="1319.75" type="line"/>
      <point x="134.1" y="1312.5" type="line"/>
      <point x="107.1" y="1346.5" type="line"/>
      <point x="132.9" y="1534.0" type="line"/>
      <point x="952.95" y="1509.8" type="line"/>
      <point x="952.95" y="1342.8" type="line"/>
      <point x="566.65" y="906.65"/>
      <point x="347.05" y="567.65"/>
      <point x="346.35" y="422.35" type="qcurve" smooth="yes"/>
      <point x="346.0" y="301.55"/>
      <point x="510.2" y="187.75"/>
      <point x="704.3" y="178.7" type="qcurve" smooth="yes"/>
      <point x="782.15" y="175.0" type="line" smooth="yes"/>
      <point x="859.65" y="171.25"/>
      <point x="936.1" y="101.9"/>
      <point x="936.2" y="37.2" type="qcurve"/>
      <point x="886.85" y="-313.0" type="line"/>
    </contour>
  </outline>
</glyph>
<glyph name="kappa" format="2">
  <advance width="1243"/>
  <unicode hex="03BA"/>
  <outline>
    <contour>
      <point x="163.75" y="0.0" type="line"/>
      <point x="167.45" y="475.1" type="line"/>
      <point x="156.75" y="996.45" type="line"/>
      <point x="427.65" y="1018.2" type="line"/>
      <point x="465.45" y="983.5" type="line"/>
      <point x="446.15" y="444.25" type="line"/>
      <point x="448.15" y="0.0" type="line"/>
    </contour>
    <contour>
      <point x="348.75" y="118.3" type="line"/>
      <point x="348.75" y="325.1" type="line"/>
      <point x="794.8" y="873.1" type="line" smooth="yes"/>
      <point x="848.55" y="939.45"/>
      <point x="978.6" y="1029.7"/>
      <point x="1100.85" y="1032.05" type="qcurve"/>
      <point x="1130.65" y="1000.5" type="line"/>
      <point x="1108.7" y="794.5" type="line"/>
      <point x="1006.8" y="794.5"/>
      <point x="929.5" y="770.4"/>
      <point x="885.35" y="721.1" type="qcurve" smooth="yes"/>
    </contour>
    <contour>
      <point x="952.1" y="-10.45" type="line"/>
      <point x="887.5" y="-10.45"/>
      <point x="811.45" y="34.15"/>
      <point x="783.65" y="91.95" type="qcurve" smooth="yes"/>
      <point x="581.3" y="509.15" type="line"/>
      <point x="744.55" y="676.95" type="line"/>
      <point x="986.35" y="261.3" type="line" smooth="yes"/>
      <point x="1034.0" y="178.7"/>
      <point x="1087.85" y="134.45"/>
      <point x="1130.6" y="134.45" type="qcurve" smooth="yes"/>
      <point x="1207.6" y="134.45" type="line"/>
      <point x="1207.6" y="32.6" type="line"/>
    </contour>
  </outline>
</glyph>
<glyph name="lambda" format="2">
  <advance width="1145"/>
  <unicode hex="03BB"/>
  <outline>
    <contour>
      <point x="887.15" y="-10.45" type="line"/>
      <point x="830.15" y="-11.5"/>
      <point x="749.7" y="36.45"/>
      <point x="728.6" y="101.25" type="qcurve" smooth="yes"/>
      <point x="476.5" y="868.0" type="line"/>
      <point x="333.5" y="1222.0" type="line" smooth="yes"/>
      <point x="295.4" y="1317.9"/>
      <point x="213.8" y="1363.6"/>
      <point x="164.5" y="1374.35" type="qcurve" smooth="yes"/>
      <point x="62.5" y="1395.35" type="line"/>
      <point x="62.5" y="1503.0" type="line"/>
      <point x="337.65" y="1537.35" type="line"/>
      <point x="430.9" y="1537.35"/>
      <point x="537.2" y="1427.55"/>
      <point x="569.5" y="1332.0" type="qcurve" smooth="yes"/>
      <point x="712.5" y="909.0" type="line"/>
      <point x="964.7" y="231.7" type="line" smooth="yes"/>
      <point x="983.45" y="181.15"/>
      <point x="1027.45" y="134.45"/>
      <point x="1076.5" y="134.45" type="qcurve" smooth="yes"/>
      <point x="1147.5" y="134.45" type="line"/>
      <point x="1147.5" y="32.6" type="line"/>
    </contour>
    <contour>
      <point x="27.5" y="0.0" type="line"/>
      <point x="-10.65" y="34.7" type="line"/>
      <point x="217.75" y="541.15" type="line"/>
      <point x="459.1" y="1100.0" type="line"/>
      <point x="544.5" y="936.0" type="line"/>
      <point x="409.7" y="502.35" type="line"/>
      <point x="273.55" y="21.4" type="line"/>
    </contour>
  </outline>
</glyph>
<glyph name="psi" format="2">
  <advance width="1616"/>
  <unicode hex="03C8"/>
  <outline>
    <contour>
      <point x="777.85" y="-21.7" type="line"/>
      <point x="461.5" y="-15.85"/>
      <point x="158.15" y="203.45"/>
      <point x="169.85" y="453.65" type="qcurve" smooth="yes"/>
      <point x="180.75" y="681.95" type="line"/>
      <point x="184.1" y="784.85"/>
      <point x="153.95" y="856.7"/>
      <point x="104.15" y="868.1" type="qcurve" smooth="yes"/>
      <point x="36.75" y="882.45" type="line"/>
      <point x="36.75" y="990.1" type="line"/>
      <point x="307.3" y="1024.45" type="line"/>
      <point x="386.25" y="1024.45"/>
      <point x="462.05" y="902.85"/>
      <point x="459.75" y="798.0" type="qcurve"/>
      <point x="450.2" y="443.05" type="line" smooth="yes"/>
      <point x="446.25" y="275.6"/>
      <point x="631.2" y="151.8"/>
      <point x="777.85" y="151.15" type="qcurve"/>
    </contour>
    <contour>
      <point x="920.1" y="-21.35" type="qcurve"/>
      <point x="919.4" y="151.5" type="line"/>
      <point x="1072.35" y="155.35"/>
      <point x="1264.15" y="346.95"/>
      <point x="1264.15" y="527.45" type="qcurve" smooth="yes"/>
      <point x="1264.15" y="642.2"/>
      <point x="1190.8" y="858.45"/>
      <point x="1114.55" y="963.3" type="qcurve"/>
      <point x="1303.35" y="1051.05" type="line"/>
      <point x="1413.55" y="949.55"/>
      <point x="1546.55" y="698.3"/>
      <point x="1546.55" y="539.45" type="qcurve" smooth="yes"/>
      <point x="1546.55" y="303.6"/>
      <point x="1198.1" y="-13.3"/>
    </contour>
    <contour>
      <point x="714.4" y="-480.0" type="line"/>
      <point x="676.6" y="-445.3" type="line"/>
      <point x="695.25" y="38.95" type="line"/>
      <point x="705.5" y="38.95" type="line"/>
      <point x="724.0" y="1407.0" type="line"/>
      <point x="907.25" y="1421.05" type="line"/>
      <point x="945.05" y="1386.35" type="line"/>
      <point x="969.7" y="38.95" type="line"/>
      <point x="979.95" y="38.95" type="line"/>
      <point x="998.95" y="-458.6" type="line"/>
    </contour>
  </outline>
</glyph>
<glyph name="kaisymbol" format="2">
  <advance width="1324"/>
  <unicode hex="03D7"/>
  <outline>
    <contour>
      <point x="580.7" y="-531.0" type="qcurve" smooth="yes"/>
      <point x="361.75" y="-531.0"/>
      <point x="39.05" y="-335.95"/>
      <point x="-45.55" y="-187.0" type="qcurve"/>
      <point x="42.8" y="-112.65" type="line"/>
      <point x="104.6" y="-199.0"/>
      <point x="370.2" y="-354.6"/>
      <point x="571.45" y="-354.6" type="qcurve" smooth="yes"/>
      <point x="829.55" y="-354.6"/>
      <point x="1077.2" y="-55.1"/>
      <point x="1072.55" y="134.1" type="qcurve"/>
      <point x="1266.45" y="134.1" type="line"/>
      <point x="1279.55" y="-133.55"/>
      <point x="904.6" y="-531.0"/>
    </contour>
    <component base="kappa" yOffset="-0.35"/>
  </outline>
</glyph>
<glyph name="Nje" format="2">
  <advance width="2337"/>
  <unicode hex="040A"/>
  <outline>
    <contour>
      <point x="68.0" y="0.0" type="line"/>
      <point x="754.3" y="0.0" type="line"/>
      <point x="754.3" y="110.5" type="line"/>
      <point x="557.5" y="145.5" type="line"/>
      <point x="555.5" y="754.0" type="line"/>
      <point x="557.5" y="1341.5" type="line"/>
      <point x="754.3" y="1375.5" type="line"/>
      <point x="754.3" y="1500.0" type="line"/>
      <point x="68.0" y="1500.0" type="line"/>
      <point x="68.0" y="1375.5" type="line"/>
      <point x="265.5" y="1341.5" type="line"/>
      <point x="267.5" y="754.0" type="line"/>
      <point x="265.5" y="145.5" type="line"/>
      <point x="68.0" y="110.5" type="line"/>
    </contour>
    <contour>
      <point x="411.5" y="747.45" type="line"/>
      <point x="886.2" y="747.45" type="line"/>
      <point x="1343.7" y="747.45" type="line"/>
      <point x="1343.7" y="883.45" type="line"/>
      <point x="886.2" y="875.45" type="line"/>
      <point x="411.5" y="883.45" type="line"/>
    </contour>
    <contour>
      <point x="1000.2" y="0.0" type="line"/>
      <point x="1777.2" y="0.0" type="line" smooth="yes"/>
      <point x="2031.4500000000048" y="0.0"/>
      <point x="2288.85" y="254.9"/>
      <point x="2288.85" y="455.65" type="qcurve" smooth="yes"/>
      <point x="2288.85" y="672.021492204905"/>
      <point x="2026.6" y="883.45"/>
      <point x="1758.9" y="883.45" type="qcurve" smooth="yes"/>
      <point x="1495.95" y="883.45" type="line"/>
      <point x="1487.3" y="896.05" type="line"/>
      <point x="1489.7" y="1341.5" type="line"/>
      <point x="1693.5" y="1375.5" type="line"/>
      <point x="1693.5" y="1500.0" type="line"/>
      <point x="1000.2" y="1500.0" type="line"/>
      <point x="1000.2" y="1375.5" type="line"/>
      <point x="1197.7" y="1341.5" type="line"/>
      <point x="1199.7" y="742.3" type="line"/>
      <point x="1197.7" y="145.5" type="line"/>
      <point x="1000.2" y="110.5" type="line"/>
    </contour>
    <contour>
      <point x="1487.95" y="744.55" type="line"/>
      <point x="1496.95" y="757.5" type="line"/>
      <point x="1684.0" y="757.5" type="line" smooth="yes"/>
      <point x="1822.65" y="757.5"/>
      <point x="1987.1" y="613.23544520549"/>
      <point x="1987.1" y="458.1" type="qcurve" smooth="yes"/>
      <point x="1987.1" y="290.15"/>
      <point x="1827.8" y="122.7"/>
      <point x="1670.8" y="122.7" type="qcurve" smooth="yes"/>
      <point x="1519.15" y="122.7" type="line"/>
      <point x="1488.65" y="144.0" type="line"/>
    </contour>
  </outline>
</glyph>
<glyph name="Dzhe" format="2">
  <advance width="1794"/>
  <unicode hex="040F"/>
  <outline>
    <contour>
      <point x="827.35" y="-338.0" type="line"/>
      <point x="767.85" y="0.0" type="line"/>
      <point x="68.0" y="0.0" type="line"/>
      <point x="68.0" y="115.4" type="line"/>
      <point x="265.5" y="150.05" type="line"/>
      <point x="267.5" y="739.5" type="line"/>
      <point x="265.5" y="1346.05" type="line"/>
      <point x="68.0" y="1380.4" type="line"/>
      <point x="68.0" y="1500.0" type="line"/>
      <point x="754.65" y="1500.0" type="line"/>
      <point x="754.65" y="1380.4" type="line"/>
      <point x="557.85" y="1346.05" type="line"/>
      <point x="555.85" y="739.5" type="line"/>
      <point x="557.85" y="152.1" type="line"/>
      <point x="602.75" y="125.5" type="line"/>
      <point x="1191.45" y="125.5" type="line"/>
      <point x="1236.35" y="152.1" type="line"/>
      <point x="1238.35" y="739.5" type="line"/>
      <point x="1236.35" y="1346.05" type="line"/>
      <point x="1039.55" y="1380.4" type="line"/>
      <point x="1039.55" y="1500.0" type="line"/>
      <point x="1726.2" y="1500.0" type="line"/>
      <point x="1726.2" y="1380.4" type="line"/>
      <point x="1528.7" y="1346.05" type="line"/>
      <point x="1526.7" y="739.5" type="line"/>
      <point x="1528.7" y="150.05" type="line"/>
      <point x="1726.2" y="115.4" type="line"/>
      <point x="1726.2" y="0.0" type="line"/>
      <point x="1026.35" y="0.0" type="line"/>
      <point x="966.85" y="-338.0" type="line"/>
    </contour>
  </outline>
</glyph>
<glyph name="Be" format="2">
  <advance width="1409"/>
  <unicode hex="0411"/>
  <outline>
    <contour>
      <point x="554.8" y="880.6" type="line"/>
      <point x="563.45" y="868.0" type="line"/>
      <point x="814.05" y="868.0" type="line" smooth="yes"/>
      <point x="1081.75" y="868.0"/>
      <point x="1344.0" y="663.41915367483"/>
      <point x="1344.0" y="447.4" type="qcurve" smooth="yes"/>
      <point x="1344.0" y="247.40622171947"/>
      <point x="1089.85" y="0.0"/>
      <point x="839.35" y="0.0" type="qcurve" smooth="yes"/>
      <point x="68.0" y="0.0" type="line"/>
      <point x="68.0" y="110.5" type="line"/>
      <point x="265.5" y="145.5" type="line"/>
      <point x="267.5" y="742.3" type="line"/>
      <point x="265.5" y="1341.5" type="line"/>
      <point x="68.0" y="1375.5" type="line"/>
      <point x="68.0" y="1500.0" type="line"/>
      <point x="1213.25" y="1500.0" type="line"/>
      <point x="1213.25" y="1111.9" type="line"/>
      <point x="1086.8" y="1111.9" type="line"/>
      <point x="1050.4" y="1368.0" type="line"/>
      <point x="596.6" y="1368.0" type="line"/>
      <point x="557.85" y="1346.6" type="line"/>
    </contour>
    <contour>
      <point x="555.45" y="729.1" type="line"/>
      <point x="557.45" y="144.0" type="line"/>
      <point x="587.95" y="122.7" type="line"/>
      <point x="725.95" y="122.7" type="line" smooth="yes"/>
      <point x="882.95" y="122.7"/>
      <point x="1042.25" y="282.87157190634"/>
      <point x="1042.25" y="449.85" type="qcurve" smooth="yes"/>
      <point x="1042.25" y="604.60907534246"/>
      <point x="877.80170761612" y="742.05"/>
      <point x="739.15" y="742.05" type="qcurve" smooth="yes"/>
      <point x="564.8" y="742.05" type="line"/>
    </contour>
  </outline>
</glyph>
<glyph name="De" format="2">
  <advance width="1674"/>
  <unicode hex="0414"/>
  <outline>
    <contour>
      <point x="1472.75" y="-338.0" type="line"/>
      <point x="1393.25" y="0.0" type="line"/>
      <point x="260.25" y="0.0" type="line"/>
      <point x="180.75" y="-338.0" type="line"/>
      <point x="41.25" y="-338.0" type="line"/>
      <point x="51.25" y="125.5" type="line"/>
      <point x="1602.25" y="125.5" type="line"/>
      <point x="1612.25" y="-338.0" type="line"/>
    </contour>
    <contour>
      <point x="377.05" y="810.8" type="qcurve" smooth="yes"/>
      <point x="417.35" y="1341.5" type="line"/>
      <point x="219.85" y="1375.5" type="line"/>
      <point x="219.85" y="1500.0" type="line"/>
      <point x="1602.25" y="1500.0" type="line"/>
      <point x="1602.25" y="1375.5" type="line"/>
      <point x="1404.75" y="1341.5" type="line"/>
      <point x="1402.75" y="754.0" type="line"/>
      <point x="1404.75" y="0.0" type="line"/>
      <point x="1112.4" y="0.0" type="line"/>
      <point x="1114.4" y="754.0" type="line"/>
      <point x="1112.4" y="1341.4" type="line"/>
      <point x="1067.5" y="1368.0" type="line"/>
      <point x="630.3" y="1368.0" type="line"/>
      <point x="585.4" y="1341.4" type="line"/>
      <point x="544.45" y="804.9" type="line" smooth="yes"/>
      <point x="523.65" y="529.6"/>
      <point x="453.2" y="196.9"/>
      <point x="393.05" y="73.85" type="qcurve"/>
      <point x="200.95" y="73.85" type="line"/>
      <point x="275.75" y="199.5"/>
      <point x="355.9" y="537.05"/>
    </contour>
  </outline>
</glyph>
<glyph name="Tse" format="2">
  <advance width="1798"/>
  <unicode hex="0426"/>
  <guideline x="1638.0" y="1367.0" angle="90.0" identifier="Ju90KfnAFs"/>
  <outline>
    <contour>
      <point x="1238.35" y="751.2" type="line"/>
      <point x="1236.35" y="1346.05" type="line"/>
      <point x="1039.55" y="1380.4" type="line"/>
      <point x="1039.55" y="1500.0" type="line"/>
      <point x="1726.2" y="1500.0" type="line"/>
      <point x="1726.2" y="1380.4" type="line"/>
      <point x="1528.7" y="1346.05" type="line"/>
      <point x="1526.7" y="751.2" type="line"/>
      <point x="1528.7" y="125.5" type="line"/>
      <point x="1726.2" y="125.5" type="line"/>
      <point x="1736.2" y="-338.0" type="line"/>
      <point x="1596.7" y="-338.0" type="line"/>
      <point x="1517.2" y="0.0" type="line"/>
      <point x="68.0" y="0.0" type="line"/>
      <point x="68.0" y="115.4" type="line"/>
      <point x="265.5" y="152.0" type="line"/>
      <point x="267.5" y="751.2" type="line"/>
      <point x="265.5" y="1346.05" type="line"/>
      <point x="68.0" y="1380.4" type="line"/>
      <point x="68.0" y="1500.0" type="line"/>
      <point x="754.65" y="1500.0" type="line"/>
      <point x="754.65" y="1380.4" type="line"/>
      <point x="557.85" y="1346.05" type="line"/>
      <point x="555.85" y="751.2" type="line"/>
      <point x="557.85" y="152.1" type="line"/>
      <point x="602.75" y="125.5" type="line"/>
      <point x="1191.45" y="125.5" type="line"/>
      <point x="1236.35" y="152.1" type="line"/>
    </contour>
  </outline>
</glyph>
<glyph name="Che" format="2">
  <advance width="1750"/>
  <unicode hex="0427"/>
  <guideline x="1330.0" y="777.0" angle="90.0" identifier="9CLqHZNG04"/>
  <outline>
    <contour>
      <point x="975.45" y="0.0" type="line"/>
      <point x="975.45" y="110.5" type="line"/>
      <point x="1192.95" y="145.5" type="line"/>
      <point x="1194.95" y="754.0" type="line"/>
      <point x="1192.95" y="1341.5" type="line"/>
      <point x="999.65" y="1375.5" type="line"/>
      <point x="999.65" y="1500.0" type="line"/>
      <point x="1682.45" y="1500.0" type="line"/>
      <point x="1682.45" y="1375.5" type="line"/>
      <point x="1484.95" y="1341.5" type="line"/>
      <point x="1482.95" y="754.0" type="line"/>
      <point x="1484.95" y="145.5" type="line"/>
      <point x="1682.45" y="110.5" type="line"/>
      <point x="1682.45" y="0.0" type="line"/>
    </contour>
    <contour>
      <point x="44.75" y="1375.5" type="line"/>
      <point x="44.75" y="1500.0" type="line"/>
      <point x="727.9" y="1500.0" type="line"/>
      <point x="727.9" y="1375.5" type="line"/>
      <point x="535.25" y="1341.5" type="line"/>
      <point x="533.9" y="1056.5" type="line" smooth="yes"/>
      <point x="532.9" y="880.4"/>
      <point x="703.25" y="734.85"/>
      <point x="900.55" y="734.85" type="qcurve" smooth="yes"/>
      <point x="1017.4" y="734.85"/>
      <point x="1225.0" y="778.85"/>
      <point x="1338.95" y="820.4" type="qcurve"/>
      <point x="1338.95" y="679.4" type="line"/>
      <point x="1221.95" y="634.15"/>
      <point x="1000.5" y="584.1"/>
      <point x="817.6" y="584.1" type="qcurve" smooth="yes"/>
      <point x="547.65" y="584.1"/>
      <point x="243.65" y="795.6"/>
      <point x="242.95" y="1061.05" type="qcurve" smooth="yes"/>
      <point x="242.25" y="1341.5" type="line"/>
    </contour>
  </outline>
</glyph>
<glyph name="Shcha" format="2">
  <advance width="2499"/>
  <unicode hex="0429"/>
  <outline>
    <contour>
      <point x="2218.05" y="0.0" type="line"/>
      <point x="68.0" y="0.0" type="line"/>
      <point x="68.0" y="115.4" type="line"/>
      <point x="265.5" y="150.05" type="line"/>
      <point x="267.5" y="746.0" type="line"/>
      <point x="265.5" y="1346.05" type="line"/>
      <point x="68.0" y="1380.4" type="line"/>
      <point x="68.0" y="1500.0" type="line"/>
      <point x="744.15" y="1500.0" type="line"/>
      <point x="744.15" y="1380.4" type="line"/>
      <point x="557.85" y="1346.05" type="line"/>
      <point x="555.85" y="746.0" type="line"/>
      <point x="557.85" y="152.1" type="line"/>
      <point x="602.75" y="125.5" type="line"/>
      <point x="1056.45" y="125.5" type="line"/>
      <point x="1101.35" y="152.1" type="line"/>
      <point x="1103.35" y="751.2" type="line"/>
      <point x="1101.35" y="1344.1" type="line"/>
      <point x="908.55" y="1377.8" type="line"/>
      <point x="908.55" y="1500.0" type="line"/>
      <point x="1586.5" y="1500.0" type="line"/>
      <point x="1586.5" y="1377.8" type="line"/>
      <point x="1393.7" y="1344.1" type="line"/>
      <point x="1391.7" y="751.2" type="line"/>
      <point x="1393.7" y="152.1" type="line"/>
      <point x="1438.6" y="125.5" type="line"/>
      <point x="1892.3" y="125.5" type="line"/>
      <point x="1937.2" y="152.1" type="line"/>
      <point x="1939.2" y="746.0" type="line"/>
      <point x="1937.2" y="1346.05" type="line"/>
      <point x="1750.9" y="1380.4" type="line"/>
      <point x="1750.9" y="1500.0" type="line"/>
      <point x="2427.05" y="1500.0" type="line"/>
      <point x="2427.05" y="1380.4" type="line"/>
      <point x="2229.55" y="1346.05" type="line"/>
      <point x="2227.55" y="746.0" type="line"/>
      <point x="2229.55" y="125.5" type="line"/>
      <point x="2427.05" y="125.5" type="line"/>
      <point x="2437.05" y="-338.0" type="line"/>
      <point x="2297.55" y="-338.0" type="line"/>
    </contour>
  </outline>
</glyph>
<glyph name="Yu" format="2">
  <advance width="2437"/>
  <unicode hex="042E"/>
  <guideline x="732.0" y="785.0" angle="90.0" identifier="6nH5tb4DEh"/>
  <outline>
    <contour>
      <point x="68.0" y="0.0" type="line"/>
      <point x="68.0" y="110.5" type="line"/>
      <point x="265.5" y="145.5" type="line"/>
      <point x="267.5" y="754.0" type="line"/>
      <point x="265.5" y="1341.5" type="line"/>
      <point x="68.0" y="1375.5" type="line"/>
      <point x="68.0" y="1500.0" type="line"/>
      <point x="754.3" y="1500.0" type="line"/>
      <point x="754.3" y="1375.5" type="line"/>
      <point x="557.5" y="1341.5" type="line"/>
      <point x="555.5" y="754.0" type="line"/>
      <point x="557.5" y="145.5" type="line"/>
      <point x="754.3" y="110.5" type="line"/>
      <point x="754.3" y="0.0" type="line"/>
    </contour>
    <contour>
      <point x="411.5" y="709.0" type="line"/>
      <point x="411.5" y="851.5" type="line"/>
      <point x="960.7" y="843.5" type="line"/>
      <point x="960.7" y="709.0" type="line"/>
    </contour>
    <contour>
      <point x="803.75" y="739.1" type="qcurve" smooth="yes"/>
      <point x="803.75" y="1070.1"/>
      <point x="1234.0" y="1522.45"/>
      <point x="1583.0" y="1522.45" type="qcurve" smooth="yes"/>
      <point x="1932.35" y="1522.45"/>
      <point x="2362.25" y="1099.1"/>
      <point x="2362.25" y="754.1" type="qcurve" smooth="yes"/>
      <point x="2362.25" y="425.1"/>
      <point x="1936.7" y="-28.9"/>
      <point x="1587.35" y="-28.9" type="qcurve" smooth="yes"/>
      <point x="1242.85" y="-28.9"/>
      <point x="803.75" y="398.1"/>
    </contour>
    <contour>
      <point x="1117.65" y="773.8" type="qcurve" smooth="yes"/>
      <point x="1117.65" y="465.05"/>
      <point x="1377.505954573375" y="115.7"/>
      <point x="1585.0" y="115.7" type="qcurve" smooth="yes"/>
      <point x="1811.38834521064" y="115.7"/>
      <point x="2048.7" y="423.05"/>
      <point x="2048.7" y="748.5" type="qcurve" smooth="yes"/>
      <point x="2048.7" y="1039.25"/>
      <point x="1794.452452942915" y="1371.95"/>
      <point x="1584.3" y="1371.95" type="qcurve" smooth="yes"/>
      <point x="1357.914522780015" y="1371.95"/>
      <point x="1117.65" y="1065.6"/>
    </contour>
  </outline>
</glyph>
<glyph name="Ya" format="2">
  <advance width="1543"/>
  <unicode hex="042F"/>
  <outline>
    <contour>
      <point x="541.35" y="755.6" type="line"/>
      <point x="287.75" y="334.6" type="line" smooth="yes"/>
      <point x="204.25" y="196.45"/>
      <point x="84.2" y="112.9"/>
      <point x="23.0" y="110.5" type="qcurve"/>
      <point x="23.0" y="0.0" type="line"/>
      <point x="372.0" y="0.0" type="line"/>
      <point x="411.85" y="32.6" type="line"/>
      <point x="814.25" y="714.75" type="line"/>
    </contour>
    <contour>
      <point x="819.5" y="785.55" type="line" smooth="yes"/>
      <point x="667.4" y="785.55"/>
      <point x="514.75" y="935.35"/>
      <point x="514.75" y="1083.25" type="qcurve" smooth="yes"/>
      <point x="514.75" y="1227.05"/>
      <point x="670.245876288645" y="1364.5"/>
      <point x="814.95" y="1364.5" type="qcurve" smooth="yes"/>
      <point x="955.05" y="1364.5" type="line"/>
      <point x="984.85" y="1344.6" type="line"/>
      <point x="987.5" y="765.6" type="line"/>
      <point x="985.85" y="143.55" type="line"/>
      <point x="774.65" y="110.5" type="line"/>
      <point x="774.65" y="0.0" type="line"/>
      <point x="1475.35" y="0.0" type="line"/>
      <point x="1475.35" y="110.5" type="line"/>
      <point x="1277.85" y="146.8" type="line"/>
      <point x="1275.85" y="760.5" type="line"/>
      <point x="1277.85" y="1341.5" type="line"/>
      <point x="1475.35" y="1375.5" type="line"/>
      <point x="1475.35" y="1500.0" type="line"/>
      <point x="750.05" y="1500.0" type="line" smooth="yes"/>
      <point x="467.973529411775" y="1500.0"/>
      <point x="208.1" y="1275.0"/>
      <point x="208.1" y="1080.2" type="qcurve" smooth="yes"/>
      <point x="208.1" y="884.308962264135"/>
      <point x="469.67641382667" y="666.90622867376"/>
      <point x="679.1" y="664.4" type="qcurve"/>
      <point x="717.8" y="654.3" type="line"/>
      <point x="1131.5" y="665.0" type="line"/>
      <point x="1131.85" y="785.55" type="line"/>
    </contour>
  </outline>
</glyph>
<glyph name="be" format="2">
  <advance width="1271"/>
  <unicode hex="0431"/>
  <outline>
    <contour>
      <point x="265.95" y="709.05" type="line"/>
      <point x="329.3" y="845.9"/>
      <point x="572.65" y="1013.7"/>
      <point x="751.05" y="1013.7" type="qcurve" smooth="yes"/>
      <point x="960.1" y="1013.7"/>
      <point x="1210.05" y="750.85"/>
      <point x="1210.05" y="519.5" type="qcurve" smooth="yes"/>
      <point x="1210.05" y="267.309090909075"/>
      <point x="913.0" y="-23.75"/>
      <point x="650.75" y="-23.75" type="qcurve" smooth="yes"/>
      <point x="364.95" y="-23.75"/>
      <point x="70.0" y="299.35"/>
      <point x="70.0" y="625.75" type="qcurve" smooth="yes"/>
      <point x="70.0" y="977.25"/>
      <point x="419.7" y="1404.55"/>
      <point x="797.25" y="1456.4" type="qcurve" smooth="yes"/>
      <point x="985.05" y="1484.05"/>
      <point x="1061.8" y="1511.6"/>
      <point x="1074.2" y="1537.0" type="qcurve"/>
      <point x="1174.15" y="1537.0" type="line"/>
      <point x="1165.95" y="1388.6"/>
      <point x="1011.95" y="1234.55"/>
      <point x="804.6" y="1216.35" type="qcurve" smooth="yes"/>
      <point x="647.0" y="1204.0"/>
      <point x="430.5" y="1190.45"/>
      <point x="376.9" y="1132.7" type="qcurve" smooth="yes"/>
      <point x="334.59388044772" y="1088.050029637975"/>
      <point x="313.04633596352" y="874.94932351439"/>
      <point x="312.4" y="746.45" type="qcurve"/>
      <point x="364.9" y="746.45" type="line"/>
      <point x="360.124173002725" y="663.39537704289"/>
      <point x="359.2" y="607.15"/>
      <point x="359.2" y="531.05" type="qcurve" smooth="yes"/>
      <point x="359.2" y="306.75"/>
      <point x="516.9" y="97.45"/>
      <point x="648.3" y="97.45" type="qcurve" smooth="yes"/>
      <point x="773.1" y="97.45"/>
      <point x="909.85" y="283.33850574712"/>
      <point x="909.85" y="493.8" type="qcurve" smooth="yes"/>
      <point x="909.85" y="668.4"/>
      <point x="777.6" y="850.25"/>
      <point x="656.1" y="850.25" type="qcurve" smooth="yes"/>
      <point x="534.0" y="850.25"/>
      <point x="371.6" y="728.6"/>
      <point x="320.35" y="625.75" type="qcurve"/>
    </contour>
  </outline>
</glyph>
<glyph name="de" format="2">
  <advance width="1279"/>
  <unicode hex="0434"/>
  <guideline x="302.0" y="625.0" angle="90.0" identifier="jHuxcyi1x5"/>
  <guideline x="953.0" y="554.0" angle="90.0" identifier="b1mHk7wgTR"/>
  <guideline x="627.0" y="553.0" angle="90.0" identifier="m4aYe0x4PZ"/>
  <outline>
    <contour>
      <point x="1108.55" y="-318.0" type="line"/>
      <point x="1016.05" y="0.0" type="line"/>
      <point x="230.25" y="0.0" type="line"/>
      <point x="137.75" y="-318.0" type="line"/>
      <point x="24.75" y="-318.0" type="line"/>
      <point x="34.75" y="124.6" type="line"/>
      <point x="1211.55" y="124.6" type="line"/>
      <point x="1221.55" y="-318.0" type="line"/>
    </contour>
    <contour>
      <point x="1055.7" y="0.0" type="line"/>
      <point x="775.8" y="0.0" type="line"/>
      <point x="778.15" y="508.75" type="line"/>
      <point x="775.8" y="892.9" type="line"/>
      <point x="441.1" y="892.9" type="line"/>
      <point x="406.35" y="480.65" type="line" smooth="yes"/>
      <point x="396.43359811498" y="365.666120160015"/>
      <point x="359.8" y="175.85"/>
      <point x="325.7" y="100.1" type="qcurve"/>
      <point x="149.0" y="100.1" type="line"/>
      <point x="195.5" y="174.3"/>
      <point x="247.25" y="378.75"/>
      <point x="257.2" y="503.65" type="qcurve" smooth="yes"/>
      <point x="289.3" y="888.5" type="line"/>
      <point x="141.3" y="923.5" type="line"/>
      <point x="141.3" y="1017.5" type="line"/>
      <point x="1203.7" y="1017.5" type="line"/>
      <point x="1203.7" y="923.5" type="line"/>
      <point x="1055.7" y="888.5" type="line"/>
      <point x="1053.7" y="508.75" type="line"/>
    </contour>
  </outline>
</glyph>
<glyph name="icyr" format="2">
  <advance width="1422"/>
  <unicode hex="0438"/>
  <guideline x="443.4" y="590.0" angle="0" identifier="jHuxcyi1x5"/>
  <guideline x="780.15" y="551.2" angle="90.0" identifier="b1mHk7wgTR"/>
  <guideline x="839.8" y="588.7" angle="90.0" identifier="m4aYe0x4PZ"/>
  <outline>
    <contour>
      <point x="409.15" y="315.35" type="line"/>
      <point x="675.1" y="551.05" type="line"/>
      <point x="934.5" y="793.75" type="line"/>
      <point x="1015.8" y="706.0" type="line"/>
      <point x="746.75" y="464.95" type="line"/>
      <point x="490.45" y="227.6" type="line"/>
    </contour>
    <contour>
      <point x="214.25" y="508.75" type="line"/>
      <point x="212.25" y="888.5" type="line"/>
      <point x="64.25" y="923.5" type="line"/>
      <point x="64.25" y="1017.5" type="line"/>
      <point x="622.8" y="1017.5" type="line"/>
      <point x="622.8" y="923.5" type="line"/>
      <point x="492.15" y="888.5" type="line"/>
      <point x="489.8" y="508.75" type="line"/>
      <point x="492.15" y="129.0" type="line"/>
      <point x="622.8" y="94.0" type="line"/>
      <point x="622.8" y="0.0" type="line"/>
      <point x="64.25" y="0.0" type="line"/>
      <point x="64.25" y="94.0" type="line"/>
      <point x="212.25" y="129.0" type="line"/>
    </contour>
    <contour>
      <point x="1210.7" y="508.75" type="line"/>
      <point x="1212.7" y="129.0" type="line"/>
      <point x="1360.7" y="94.0" type="line"/>
      <point x="1360.7" y="0.0" type="line"/>
      <point x="802.15" y="0.0" type="line"/>
      <point x="802.15" y="94.0" type="line"/>
      <point x="932.8" y="129.0" type="line"/>
      <point x="935.15" y="508.75" type="line"/>
      <point x="932.8" y="888.5" type="line"/>
      <point x="802.15" y="923.5" type="line"/>
      <point x="802.15" y="1017.5" type="line"/>
      <point x="1360.7" y="1017.5" type="line"/>
      <point x="1360.7" y="923.5" type="line"/>
      <point x="1212.7" y="888.5" type="line"/>
    </contour>
  </outline>
</glyph>
<glyph name="ya" format="2">
  <advance width="1240"/>
  <unicode hex="044F"/>
  <guideline x="302.0" y="625.0" angle="90.0" identifier="XQgmgmO2xX"/>
  <guideline x="953.0" y="554.0" angle="90.0" identifier="MobSutKfE9"/>
  <guideline x="627.0" y="553.0" angle="90.0" identifier="l2g0Cp9ZiO"/>
  <outline>
    <contour>
      <point x="841.9" y="518.0" type="line"/>
      <point x="841.9" y="398.75" type="line"/>
      <point x="501.05" y="395.5" type="line"/>
      <point x="463.65" y="406.15" type="line"/>
      <point x="294.1" y="424.35"/>
      <point x="106.7" y="564.5"/>
      <point x="106.7" y="705.8" type="qcurve" smooth="yes"/>
      <point x="106.7" y="853.3"/>
      <point x="327.7" y="1017.5"/>
      <point x="542.5" y="1017.5" type="qcurve" smooth="yes"/>
      <point x="1175.35" y="1017.5" type="line"/>
      <point x="1175.35" y="923.5" type="line"/>
      <point x="1027.35" y="888.5" type="line"/>
      <point x="1025.35" y="508.75" type="line"/>
      <point x="1027.35" y="129.0" type="line"/>
      <point x="1175.35" y="94.0" type="line"/>
      <point x="1175.35" y="0.0" type="line"/>
      <point x="613.3" y="0.0" type="line"/>
      <point x="613.3" y="94.0" type="line"/>
      <point x="747.45" y="129.0" type="line"/>
      <point x="749.8" y="508.75" type="line"/>
      <point x="747.45" y="893.95" type="line"/>
      <point x="607.6" y="893.95" type="line" smooth="yes"/>
      <point x="487.85" y="893.95"/>
      <point x="395.6" y="788.65"/>
      <point x="395.6" y="704.4" type="qcurve" smooth="yes"/>
      <point x="395.6" y="621.1"/>
      <point x="486.8" y="518.0"/>
      <point x="604.45" y="518.0" type="qcurve" smooth="yes"/>
    </contour>
    <contour>
      <point x="608.05" y="432.6" type="line"/>
      <point x="422.05" y="121.5" type="line"/>
      <point x="431.05" y="89.5" type="line"/>
      <point x="417.65" y="0.0" type="line"/>
      <point x="23.0" y="0.0" type="line"/>
      <point x="23.0" y="94.0" type="line"/>
      <point x="146.75" y="129.0" type="line"/>
      <point x="368.95" y="492.95" type="line"/>
    </contour>
  </outline>
</glyph>
<glyph name="Gheup" format="2">
  <advance width="1212"/>
  <unicode hex="0490"/>
  <outline>
    <contour>
      <point x="959.15" y="1500.0" type="line"/>
      <point x="1037.35" y="1831.5" type="line"/>
      <point x="1176.85" y="1831.5" type="line"/>
      <point x="1166.85" y="1368.0" type="line"/>
      <point x="596.6" y="1368.0" type="line"/>
      <point x="557.85" y="1346.6" type="line"/>
      <point x="557.95" y="760.0" type="line"/>
      <point x="559.95" y="143.55" type="line"/>
      <point x="771.85" y="110.85" type="line"/>
      <point x="771.85" y="0.0" type="line"/>
      <point x="68.0" y="0.0" type="line"/>
      <point x="68.0" y="110.5" type="line"/>
      <point x="265.5" y="146.8" type="line"/>
      <point x="267.5" y="757.9" type="line"/>
      <point x="265.5" y="1341.5" type="line"/>
      <point x="68.0" y="1375.5" type="line"/>
      <point x="68.0" y="1500.0" type="line"/>
    </contour>
  </outline>
</glyph>
<glyph name="zhedescender" format="2">
  <advance width="1848"/>
  <unicode hex="0497"/>
  <guideline x="241.0" y="553.0" angle="90.0" identifier="8KgqZm3A67"/>
  <outline>
    <contour>
      <point x="780.8" y="508.75" type="line"/>
      <point x="778.8" y="888.5" type="line"/>
      <point x="644.9" y="923.5" type="line"/>
      <point x="644.9" y="1017.5" type="line"/>
      <point x="1192.25" y="1017.5" type="line"/>
      <point x="1192.25" y="923.5" type="line"/>
      <point x="1058.35" y="888.5" type="line"/>
      <point x="1056.0" y="508.75" type="line"/>
      <point x="1058.35" y="129.0" type="line"/>
      <point x="1192.9" y="94.0" type="line"/>
      <point x="1192.9" y="0.0" type="line"/>
      <point x="645.55" y="0.0" type="line"/>
      <point x="645.55" y="94.0" type="line"/>
      <point x="778.8" y="129.0" type="line"/>
    </contour>
    <contour>
      <point x="1163.0" y="490.35" type="line"/>
      <point x="1357.15" y="666.15" type="line"/>
      <point x="1722.2" y="124.6" type="line"/>
      <point x="1722.2" y="0.0" type="line"/>
      <point x="1428.2" y="0.0" type="line"/>
      <point x="1414.8" y="89.5" type="line"/>
      <point x="1423.8" y="121.5" type="line"/>
    </contour>
    <contour>
      <point x="918.4" y="582.75" type="line"/>
      <point x="1179.6" y="580.1" type="line"/>
      <point x="1442.8" y="880.0" type="line"/>
      <point x="1308.6" y="910.0" type="line"/>
      <point x="1308.6" y="1017.5" type="line"/>
      <point x="1780.8" y="1017.5" type="line"/>
      <point x="1780.8" y="910.0" type="line"/>
      <point x="1621.25" y="875.0" type="line"/>
      <point x="1205.0" y="459.8" type="line"/>
      <point x="918.4" y="458.15" type="line"/>
    </contour>
    <contour>
      <point x="674.15" y="490.35" type="line"/>
      <point x="413.35" y="121.5" type="line"/>
      <point x="422.35" y="89.5" type="line"/>
      <point x="408.95" y="0.0" type="line"/>
      <point x="13.0" y="0.0" type="line"/>
      <point x="13.0" y="94.0" type="line"/>
      <point x="136.75" y="129.0" type="line"/>
      <point x="497.65" y="666.15" type="line"/>
    </contour>
    <contour>
      <point x="918.4" y="582.75" type="line"/>
      <point x="918.4" y="458.15" type="line"/>
      <point x="618.65" y="459.8" type="line"/>
      <point x="202.75" y="875.0" type="line"/>
      <point x="49.85" y="910.0" type="line"/>
      <point x="49.85" y="1017.5" type="line"/>
      <point x="528.55" y="1017.5" type="line"/>
      <point x="528.55" y="910.0" type="line"/>
      <point x="394.35" y="880.0" type="line"/>
      <point x="657.55" y="580.1" type="line"/>
    </contour>
    <contour>
      <point x="1645.65" y="124.6" type="line"/>
      <point x="1841.15" y="124.6" type="line"/>
      <point x="1851.15" y="-318.0" type="line"/>
      <point x="1738.15" y="-318.0" type="line"/>
      <point x="1645.65" y="0.0" type="line"/>
    </contour>
  </outline>
</glyph>
<glyph name="Kaverticalstrokecyr" format="2">
  <advance width="1825"/>
  <unicode hex="049C"/>
  <guideline x="480.0" y="796.0" angle="90.0" identifier="LxfLwWU0sJ"/>
  <outline>
    <contour>
      <point x="68.0" y="0.0" type="line"/>
      <point x="68.0" y="110.5" type="line"/>
      <point x="265.5" y="145.5" type="line"/>
      <point x="267.5" y="754.0" type="line"/>
      <point x="265.5" y="1341.5" type="line"/>
      <point x="68.0" y="1375.5" type="line"/>
      <point x="68.0" y="1500.0" type="line"/>
      <point x="748.15" y="1500.0" type="line"/>
      <point x="748.15" y="1375.5" type="line"/>
      <point x="557.85" y="1341.5" type="line"/>
      <point x="555.85" y="754.0" type="line"/>
      <point x="557.85" y="145.5" type="line"/>
      <point x="744.15" y="110.5" type="line"/>
      <point x="744.15" y="0.0" type="line"/>
    </contour>
    <contour>
      <point x="819.0" y="709.0" type="line"/>
      <point x="819.0" y="851.5" type="line"/>
      <point x="991.75" y="846.8" type="line"/>
      <point x="1351.3" y="1333.1" type="line"/>
      <point x="1210.95" y="1375.85" type="line"/>
      <point x="1210.95" y="1500.0" type="line"/>
      <point x="1716.4" y="1500.0" type="line"/>
      <point x="1716.4" y="1375.85" type="line"/>
      <point x="1538.05" y="1333.1" type="line"/>
      <point x="1096.45" y="762.85" type="line"/>
      <point x="1038.35" y="709.0" type="line"/>
    </contour>
    <contour>
      <point x="984.75" y="720.55" type="line"/>
      <point x="1179.95" y="921.75" type="line"/>
      <point x="1672.35" y="145.5" type="line"/>
      <point x="1816.05" y="110.5" type="line"/>
      <point x="1816.05" y="0.0" type="line"/>
      <point x="1201.15" y="0.0" type="line"/>
      <point x="1201.15" y="110.5" type="line"/>
      <point x="1352.0" y="145.5" type="line"/>
    </contour>
    <contour>
      <point x="901.0" y="1187.8" type="line"/>
      <point x="901.0" y="343.7" type="line"/>
      <point x="737.0" y="343.7" type="line"/>
      <point x="737.0" y="1187.8" type="line"/>
    </contour>
  </outline>
</glyph>
<glyph name="kaverticalstrokecyr" format="2">
  <advance width="1441"/>
  <unicode hex="049D"/>
  <guideline x="241.0" y="553.0" angle="90.0" identifier="lmgRx0QBdK"/>
  <outline>
    <contour>
      <point x="738.3" y="221.05" type="line"/>
      <point x="611.8" y="221.05" type="line"/>
      <point x="611.8" y="792.0" type="line"/>
      <point x="738.3" y="792.0" type="line"/>
    </contour>
    <contour>
      <point x="214.25" y="508.75" type="line"/>
      <point x="212.25" y="888.5" type="line"/>
      <point x="64.25" y="923.5" type="line"/>
      <point x="64.25" y="1017.5" type="line"/>
      <point x="622.8" y="1017.5" type="line"/>
      <point x="622.8" y="923.5" type="line"/>
      <point x="492.15" y="888.5" type="line"/>
      <point x="489.8" y="508.75" type="line"/>
      <point x="492.15" y="129.0" type="line"/>
      <point x="622.8" y="94.0" type="line"/>
      <point x="622.8" y="0.0" type="line"/>
      <point x="64.25" y="0.0" type="line"/>
      <point x="64.25" y="94.0" type="line"/>
      <point x="212.25" y="129.0" type="line"/>
    </contour>
    <contour>
      <point x="762.75" y="491.0" type="line"/>
      <point x="946.25" y="666.15" type="line"/>
      <point x="1315.55" y="129.0" type="line"/>
      <point x="1432.15" y="94.0" type="line"/>
      <point x="1432.15" y="0.0" type="line"/>
      <point x="1019.4" y="0.0" type="line"/>
      <point x="1006.0" y="89.5" type="line"/>
      <point x="1015.0" y="121.5" type="line"/>
    </contour>
    <contour>
      <point x="675.05" y="582.1" type="line"/>
      <point x="778.1" y="580.1" type="line"/>
      <point x="1024.3" y="880.0" type="line"/>
      <point x="882.9" y="910.0" type="line"/>
      <point x="882.9" y="1017.5" type="line"/>
      <point x="1368.1" y="1017.5" type="line"/>
      <point x="1368.1" y="910.0" type="line"/>
      <point x="1202.05" y="875.0" type="line"/>
      <point x="807.35" y="459.8" type="line"/>
      <point x="675.05" y="458.15" type="line"/>
    </contour>
  </outline>
</glyph>
<glyph name="Endescender" format="2">
  <advance width="1814"/>
  <unicode hex="04A2"/>
  <outline>
    <contour>
      <point x="1533.7" y="0.0" type="line"/>
      <point x="1056.4" y="0.0" type="line"/>
      <point x="1056.4" y="110.5" type="line"/>
      <point x="1253.2" y="145.5" type="line"/>
      <point x="1255.2" y="754.0" type="line"/>
      <point x="1253.2" y="1341.5" type="line"/>
      <point x="1056.4" y="1375.5" type="line"/>
      <point x="1056.4" y="1500.0" type="line"/>
      <point x="1742.7" y="1500.0" type="line"/>
      <point x="1742.7" y="1375.5" type="line"/>
      <point x="1545.2" y="1341.5" type="line"/>
      <point x="1543.2" y="754.0" type="line"/>
      <point x="1545.2" y="125.5" type="line"/>
      <point x="1742.7" y="125.5" type="line"/>
      <point x="1752.7" y="-338.0" type="line"/>
      <point x="1613.2" y="-338.0" type="line"/>
    </contour>
    <contour>
      <point x="68.0" y="0.0" type="line"/>
      <point x="68.0" y="110.5" type="line"/>
      <point x="265.5" y="145.5" type="line"/>
      <point x="267.5" y="754.0" type="line"/>
      <point x="265.5" y="1341.5" type="line"/>
      <point x="68.0" y="1375.5" type="line"/>
      <point x="68.0" y="1500.0" type="line"/>
      <point x="754.3" y="1500.0" type="line"/>
      <point x="754.3" y="1375.5" type="line"/>
      <point x="557.5" y="1341.5" type="line"/>
      <point x="555.5" y="754.0" type="line"/>
      <point x="557.5" y="145.5" type="line"/>
      <point x="754.3" y="110.5" type="line"/>
      <point x="754.3" y="0.0" type="line"/>
    </contour>
    <contour>
      <point x="411.5" y="709.0" type="line"/>
      <point x="411.5" y="851.5" type="line"/>
      <point x="905.7" y="843.5" type="line"/>
      <point x="1398.55" y="851.5" type="line"/>
      <point x="1398.55" y="709.0" type="line"/>
      <point x="905.7" y="709.0" type="line"/>
    </contour>
  </outline>
</glyph>
<glyph name="Ustraightstroke" format="2">
  <advance width="1360"/>
  <unicode hex="04B0"/>
  <outline>
    <contour>
      <point x="252.3" y="482.55" type="line"/>
      <point x="252.3" y="639.05" type="line"/>
      <point x="1116.05" y="639.05" type="line"/>
      <point x="1116.05" y="482.55" type="line"/>
    </contour>
    <contour>
      <point x="-16.0" y="1375.85" type="line"/>
      <point x="-16.0" y="1500.0" type="line"/>
      <point x="609.7" y="1500.0" type="line"/>
      <point x="609.7" y="1375.85" type="line"/>
      <point x="464.25" y="1341.2" type="line"/>
      <point x="608.25" y="1063.4" type="line"/>
      <point x="766.2" y="790.35" type="line"/>
      <point x="921.5" y="1074.15" type="line"/>
      <point x="1061.15" y="1345.75" type="line"/>
      <point x="896.2" y="1375.85" type="line"/>
      <point x="896.2" y="1500.0" type="line"/>
      <point x="1376.15" y="1500.0" type="line"/>
      <point x="1376.15" y="1375.85" type="line"/>
      <point x="1220.75" y="1346.4" type="line"/>
      <point x="1029.05" y="1014.15" type="line"/>
      <point x="829.05" y="639.05" type="line"/>
      <point x="830.7" y="145.15" type="line"/>
      <point x="1037.15" y="110.5" type="line"/>
      <point x="1037.15" y="0.0" type="line"/>
      <point x="327.85" y="0.0" type="line"/>
      <point x="327.85" y="110.5" type="line"/>
      <point x="537.3" y="145.15" type="line"/>
      <point x="539.3" y="639.05" type="line"/>
      <point x="344.65" y="982.3" type="line"/>
      <point x="133.75" y="1347.05" type="line"/>
    </contour>
  </outline>
</glyph>
<glyph name="Schwacyr" format="2">
  <advance width="1584"/>
  <unicode hex="04D8"/>
  <guideline x="255.75" y="858.1" angle="90.0" identifier="UtNSclIhRG"/>
  <guideline x="1360.0" y="842.35" angle="90.0" identifier="hwb5F7EShy"/>
  <outline>
    <contour>
      <point x="229.5" y="668.35" type="line"/>
      <point x="80.1" y="812.95" type="line"/>
      <point x="794.3" y="802.85" type="line"/>
      <point x="1351.8" y="810.85" type="line"/>
      <point x="1351.8" y="668.35" type="line"/>
      <point x="794.3" y="668.35" type="line"/>
    </contour>
    <contour>
      <point x="1508.75" y="754.1" type="qcurve" smooth="yes"/>
      <point x="1508.75" y="425.1"/>
      <point x="1122.0" y="-28.9"/>
      <point x="781.35" y="-28.9" type="qcurve" smooth="yes"/>
      <point x="452.45" y="-28.9"/>
      <point x="74.75" y="378.55"/>
      <point x="74.75" y="713.1" type="qcurve" smooth="yes"/>
      <point x="74.75" y="738.15"/>
      <point x="76.75" y="788.55"/>
      <point x="80.1" y="812.95" type="qcurve"/>
      <point x="387.8" y="805.1" type="line"/>
      <point x="387.15" y="791.45"/>
      <point x="386.15" y="761.8"/>
      <point x="386.15" y="747.8" type="qcurve" smooth="yes"/>
      <point x="386.15" y="450.1"/>
      <point x="591.35" y="115.7"/>
      <point x="779.0" y="115.7" type="qcurve" smooth="yes"/>
      <point x="994.5" y="115.7"/>
      <point x="1194.2" y="423.4"/>
      <point x="1194.2" y="748.5" type="qcurve" smooth="yes"/>
      <point x="1194.2" y="1041.1"/>
      <point x="948.5" y="1379.75"/>
      <point x="700.75" y="1379.75" type="qcurve" smooth="yes"/>
      <point x="552.95" y="1379.75"/>
      <point x="383.15" y="1273.95"/>
      <point x="355.95" y="1159.0" type="qcurve" smooth="yes"/>
      <point x="327.1" y="1034.55" type="line"/>
      <point x="192.8" y="1034.55" type="line"/>
      <point x="192.8" y="1500.0" type="line"/>
      <point x="307.45" y="1500.0" type="line"/>
      <point x="338.75" y="1424.8" type="line"/>
      <point x="397.0" y="1464.15"/>
      <point x="597.25" y="1520.0"/>
      <point x="738.8" y="1520.0" type="qcurve" smooth="yes"/>
      <point x="1092.25" y="1520.0"/>
      <point x="1508.75" y="1103.3"/>
    </contour>
  </outline>
</glyph>
<glyph name="hastroke-cy" format="2">
  <advance width="1154"/>
  <unicode hex="04FF"/>
  <outline>
    <contour>
      <point x="203.8" y="448.8" type="line"/>
      <point x="203.8" y="576.9" type="line"/>
      <point x="572.1" y="574.95" type="line"/>
      <point x="937.15" y="576.9" type="line"/>
      <point x="937.15" y="448.8" type="line"/>
      <point x="539.25" y="450.75" type="line"/>
    </contour>
    <contour>
      <point x="14.95" y="0.0" type="line"/>
      <point x="14.95" y="94.0" type="line"/>
      <point x="162.8" y="129.35" type="line"/>
      <point x="504.35" y="548.6" type="line"/>
      <point x="558.25" y="551.05" type="line"/>
      <point x="803.3" y="880.0" type="line"/>
      <point x="683.1" y="910.0" type="line"/>
      <point x="683.1" y="1017.5" type="line"/>
      <point x="1100.85" y="1017.5" type="line"/>
      <point x="1100.85" y="910.0" type="line"/>
      <point x="963.0" y="875.0" type="line"/>
      <point x="649.55" y="489.65" type="line"/>
      <point x="595.65" y="488.6" type="line"/>
      <point x="326.35" y="125.75" type="line"/>
      <point x="441.8" y="94.0" type="line"/>
      <point x="441.8" y="0.0" type="line"/>
    </contour>
    <contour>
      <point x="13.0" y="910.0" type="line"/>
      <point x="13.0" y="1017.5" type="line"/>
      <point x="546.65" y="1017.5" type="line"/>
      <point x="546.65" y="910.0" type="line"/>
      <point x="438.7" y="873.0" type="line"/>
      <point x="683.5" y="557.65" type="line"/>
      <point x="1030.5" y="129.35" type="line"/>
      <point x="1154.3" y="94.0" type="line"/>
      <point x="1154.3" y="0.0" type="line"/>
      <point x="604.35" y="0.0" type="line"/>
      <point x="604.35" y="94.0" type="line"/>
      <point x="716.5" y="130.3" type="line"/>
      <point x="451.7" y="474.8" type="line"/>
      <point x="124.35" y="875.0" type="line"/>
    </contour>
  </outline>
</glyph>
<glyph name="Germandbls" format="2">
  <advance width="1604"/>
  <unicode hex="1E9E"/>
  <outline>
    <contour>
      <point x="156.0" y="735.5" type="line"/>
      <point x="154.0" y="1047.5" type="line" smooth="yes"/>
      <point x="152.65" y="1290.5"/>
      <point x="435.5" y="1524.0"/>
      <point x="699.5" y="1524.0" type="qcurve" smooth="yes"/>
      <point x="810.5" y="1524.0"/>
      <point x="1019.0" y="1506.0"/>
      <point x="1106.0" y="1500.0" type="qcurve"/>
      <point x="1108.0" y="1368.5" type="line"/>
      <point x="996.0" y="1368.5"/>
      <point x="865.55" y="1262.0"/>
      <point x="865.55" y="1164.0" type="qcurve" smooth="yes"/>
      <point x="865.55" y="1079.6"/>
      <point x="981.6" y="960.7"/>
      <point x="1171.2" y="882.3" type="qcurve" smooth="yes"/>
      <point x="1361.75" y="803.15"/>
      <point x="1573.5" y="582.0"/>
      <point x="1573.5" y="417.0" type="qcurve" smooth="yes"/>
      <point x="1573.5" y="224.0"/>
      <point x="1319.85" y="-22.45"/>
      <point x="1121.5" y="-22.45" type="qcurve" smooth="yes"/>
      <point x="993.55" y="-22.45"/>
      <point x="804.9" y="47.35"/>
      <point x="752.2" y="102.5" type="qcurve"/>
      <point x="711.5" y="0.0" type="line"/>
      <point x="598.75" y="0.0" type="line"/>
      <point x="598.75" y="484.0" type="line"/>
      <point x="723.5" y="484.0" type="line"/>
      <point x="739.05" y="394.4" type="line" smooth="yes"/>
      <point x="762.0" y="258.5"/>
      <point x="937.0" y="130.0"/>
      <point x="1057.8" y="130.0" type="qcurve" smooth="yes"/>
      <point x="1179.45" y="130.0"/>
      <point x="1312.4" y="260.65"/>
      <point x="1312.4" y="371.15" type="qcurve" smooth="yes"/>
      <point x="1312.4" y="490.0"/>
      <point x="1176.8" y="614.3"/>
      <point x="1008.8" y="678.45" type="qcurve" smooth="yes"/>
      <point x="832.8" y="746.0"/>
      <point x="638.35" y="934.4"/>
      <point x="638.35" y="1094.8" type="qcurve" smooth="yes"/>
      <point x="638.35" y="1180.3"/>
      <point x="699.6" y="1315.75"/>
      <point x="759.0" y="1364.5" type="qcurve"/>
      <point x="695.75" y="1364.5" type="line" smooth="yes"/>
      <point x="566.75" y="1364.5"/>
      <point x="447.0" y="1215.8"/>
      <point x="446.0" y="1019.0" type="qcurve" smooth="yes"/>
      <point x="444.0" y="760.0" type="line"/>
      <point x="446.0" y="-355.0" type="line"/>
      <point x="654.0" y="-387.0" type="line"/>
      <point x="654.0" y="-487.0" type="line"/>
      <point x="-24.0" y="-487.0" type="line"/>
      <point x="-24.0" y="-387.0" type="line"/>
      <point x="154.0" y="-350.0" type="line"/>
    </contour>
  </outline>
</glyph>
<glyph name="quoteleft" format="2">
  <advance width="626"/>
  <unicode hex="2018"/>
  <outline>
    <contour>
      <point x="508.95" y="1497.25" type="line"/>
      <point x="459.85" y="1465.15"/>
      <point x="340.1" y="1343.3"/>
      <point x="316.0" y="1266.15" type="qcurve"/>
      <point x="411.15" y="1266.15"/>
      <point x="506.2" y="1174.35"/>
      <point x="506.2" y="1104.85" type="qcurve" smooth="yes"/>
      <point x="506.2" y="1036.7"/>
      <point x="406.65" y="940.75"/>
      <point x="328.6" y="940.75" type="qcurve" smooth="yes"/>
      <point x="254.55" y="940.75"/>
      <point x="143.85" y="1044.5"/>
      <point x="143.85" y="1136.9" type="qcurve" smooth="yes"/>
      <point x="143.85" y="1272.2"/>
      <point x="337.15" y="1501.15"/>
      <point x="460.35" y="1555.0" type="qcurve"/>
    </contour>
  </outline>
</glyph>
<glyph name="quotedblleft" format="2">
  <advance width="1101"/>
  <unicode hex="201C"/>
  <outline>
    <contour>
      <point x="508.95" y="1497.25" type="line"/>
      <point x="459.85" y="1465.15"/>
      <point x="340.1" y="1343.3"/>
      <point x="316.0" y="1266.15" type="qcurve"/>
      <point x="411.15" y="1266.15"/>
      <point x="506.2" y="1174.35"/>
      <point x="506.2" y="1104.85" type="qcurve" smooth="yes"/>
      <point x="506.2" y="1036.7"/>
      <point x="406.65" y="940.75"/>
      <point x="328.6" y="940.75" type="qcurve" smooth="yes"/>
      <point x="254.55" y="940.75"/>
      <point x="143.85" y="1044.5"/>
      <point x="143.85" y="1136.9" type="qcurve" smooth="yes"/>
      <point x="143.85" y="1272.2"/>
      <point x="337.15" y="1501.15"/>
      <point x="460.35" y="1555.0" type="qcurve"/>
    </contour>
    <contour>
      <point x="984.45" y="1497.25" type="line"/>
      <point x="935.35" y="1465.15"/>
      <point x="815.6" y="1343.3"/>
      <point x="791.5" y="1266.15" type="qcurve"/>
      <point x="886.65" y="1266.15"/>
      <point x="981.7" y="1174.35"/>
      <point x="981.7" y="1104.85" type="qcurve" smooth="yes"/>
      <point x="981.7" y="1036.7"/>
      <point x="882.15" y="940.75"/>
      <point x="804.1" y="940.75" type="qcurve" smooth="yes"/>
      <point x="730.05" y="940.75"/>
      <point x="619.35" y="1044.5"/>
      <point x="619.35" y="1136.9" type="qcurve" smooth="yes"/>
      <point x="619.35" y="1272.2"/>
      <point x="812.65" y="1501.15"/>
      <point x="935.85" y="1555.0" type="qcurve"/>
    </contour>
  </outline>
</glyph>
<glyph name="foursuperior" format="2">
  <advance width="880"/>
  <unicode hex="2074"/>
  <outline>
    <contour>
      <point x="46.6" y="1013.0" type="line"/>
      <point x="484.1" y="1517.0" type="line"/>
      <point x="629.8" y="1497.0" type="line"/>
      <point x="658.8" y="1465.5" type="line"/>
      <point x="661.8" y="948.0" type="line"/>
      <point x="661.8" y="783.45" type="line"/>
      <point x="802.6" y="762.0" type="line"/>
      <point x="802.6" y="670.0" type="line"/>
      <point x="318.1" y="670.0" type="line"/>
      <point x="318.1" y="762.0" type="line"/>
      <point x="472.4" y="783.45" type="line"/>
      <point x="474.75" y="947.0" type="line"/>
      <point x="479.1" y="1345.5" type="line"/>
      <point x="205.6" y="1036.0" type="line"/>
      <point x="206.6" y="1018.0" type="line"/>
      <point x="821.1" y="1014.0" type="line"/>
      <point x="821.1" y="914.0" type="line"/>
      <point x="70.6" y="912.0" type="line"/>
    </contour>
  </outline>
</glyph>
<glyph name="franc" format="2">
  <advance width="1169"/>
  <unicode hex="20A3"/>
  <outline>
    <contour>
      <point x="76.4" y="0.0" type="line"/>
      <point x="76.4" y="110.5" type="line"/>
      <point x="273.9" y="146.8" type="line"/>
      <point x="275.9" y="757.9" type="line"/>
      <point x="273.9" y="1341.5" type="line"/>
      <point x="76.4" y="1375.5" type="line"/>
      <point x="76.4" y="1500.0" type="line"/>
      <point x="1100.6" y="1500.0" type="line"/>
      <point x="1139.6" y="1146.15" type="line"/>
      <point x="1013.15" y="1146.15" type="line"/>
      <point x="939.15" y="1368.0" type="line"/>
      <point x="605.0" y="1368.0" type="line"/>
      <point x="566.25" y="1346.6" type="line"/>
      <point x="566.35" y="767.8" type="line"/>
      <point x="568.35" y="143.55" type="line"/>
      <point x="780.25" y="110.85" type="line"/>
      <point x="780.25" y="0.0" type="line"/>
    </contour>
    <contour>
      <point x="420.25" y="719.45" type="line"/>
      <point x="420.25" y="833.35" type="line"/>
      <point x="877.55" y="841.4" type="line"/>
      <point x="909.75" y="986.55" type="line"/>
      <point x="1031.65" y="986.55" type="line"/>
      <point x="1031.65" y="573.4" type="line"/>
      <point x="909.75" y="573.4" type="line"/>
      <point x="877.55" y="711.4" type="line"/>
    </contour>
    <contour>
      <point x="59.15" y="322.95" type="line"/>
      <point x="27.75" y="471.7" type="line"/>
      <point x="892.2" y="471.7" type="line"/>
      <point x="858.7" y="322.95" type="line"/>
    </contour>
  </outline>
</glyph>
<glyph name="peseta" format="2">
  <advance width="2661"/>
  <unicode hex="20A7"/>
  <outline>
    <contour>
      <point x="68.0" y="0.0" type="line"/>
      <point x="68.0" y="110.5" type="line"/>
      <point x="262.35" y="144.7" type="line"/>
      <point x="264.35" y="754.0" type="line"/>
      <point x="262.35" y="1341.5" type="line"/>
      <point x="68.0" y="1375.5" type="line"/>
      <point x="68.0" y="1500.0" type="line"/>
      <point x="705.55" y="1500.0" type="line" smooth="yes"/>
      <point x="927.9" y="1500.0"/>
      <point x="1182.75" y="1277.0"/>
      <point x="1182.75" y="1104.95" type="qcurve" smooth="yes"/>
      <point x="1182.75" y="868.8"/>
      <point x="923.0" y="619.05"/>
      <point x="686.0" y="619.05" type="qcurve" smooth="yes"/>
      <point x="625.85" y="619.05"/>
      <point x="511.1" y="635.0"/>
      <point x="465.35" y="646.75" type="qcurve"/>
      <point x="474.35" y="769.9" type="line"/>
      <point x="507.75" y="758.55"/>
      <point x="578.45" y="748.9"/>
      <point x="623.6" y="748.9" type="qcurve" smooth="yes"/>
      <point x="753.35" y="748.9"/>
      <point x="891.85" y="915.2"/>
      <point x="890.45" y="1080.45" type="qcurve" smooth="yes"/>
      <point x="889.4" y="1223.55"/>
      <point x="741.7" y="1364.5"/>
      <point x="619.2" y="1364.5" type="qcurve" smooth="yes"/>
      <point x="574.25" y="1364.5" type="line"/>
      <point x="545.95" y="1344.5" type="line"/>
      <point x="543.95" y="800.4" type="line"/>
      <point x="545.95" y="141.45" type="line"/>
      <point x="748.0" y="110.5" type="line"/>
      <point x="748.0" y="0.0" type="line"/>
    </contour>
    <contour>
      <point x="1129.5" y="815.2" type="line"/>
      <point x="1129.5" y="909.5" type="line"/>
      <point x="1288.7" y="932.35"/>
      <point x="1411.8" y="1113.3"/>
      <point x="1434.25" y="1223.75" type="qcurve"/>
      <point x="1540.05" y="1223.75" type="line"/>
      <point x="1596.45" y="1170.5" type="line"/>
      <point x="1582.35" y="927.5" type="line"/>
      <point x="1788.85" y="927.5" type="line"/>
      <point x="1788.85" y="808.0" type="line"/>
      <point x="1573.15" y="808.0" type="line"/>
      <point x="1565.15" y="584.65" type="line"/>
      <point x="1572.75" y="231.05" type="line" smooth="yes"/>
      <point x="1573.75" y="178.5"/>
      <point x="1615.95" y="128.6"/>
      <point x="1670.35" y="128.6" type="qcurve" smooth="yes"/>
      <point x="1776.35" y="128.6" type="line"/>
      <point x="1776.35" y="29.35" type="line"/>
      <point x="1454.8" y="-10.45" type="line"/>
      <point x="1358.9" y="-10.45"/>
      <point x="1278.5" y="79.3"/>
      <point x="1279.2" y="171.4" type="qcurve"/>
      <point x="1286.2" y="528.75" type="line"/>
      <point x="1286.2" y="775.1" type="line"/>
    </contour>
    <contour>
      <point x="1767.55" y="16.55" type="line"/>
      <point x="1766.25" y="330.9" type="line"/>
      <point x="1881.25" y="330.9" type="line"/>
      <point x="1892.6" y="276.75" type="line" smooth="yes"/>
      <point x="1909.35" y="192.8"/>
      <point x="2050.55" y="94.4"/>
      <point x="2158.85" y="94.4" type="qcurve" smooth="yes"/>
      <point x="2247.2" y="94.4"/>
      <point x="2351.9" y="166.65"/>
      <point x="2351.9" y="235.4" type="qcurve" smooth="yes"/>
      <point x="2351.9" y="308.6"/>
      <point x="2240.7" y="379.5"/>
      <point x="2094.5" y="425.45" type="qcurve" smooth="yes"/>
      <point x="1923.05" y="479.75"/>
      <point x="1794.25" y="619.8"/>
      <point x="1794.25" y="742.15" type="qcurve" smooth="yes"/>
      <point x="1794.25" y="861.35"/>
      <point x="1981.2" y="1028.35"/>
      <point x="2155.95" y="1028.35" type="qcurve" smooth="yes"/>
      <point x="2240.85" y="1028.35"/>
      <point x="2363.45" y="991.1"/>
      <point x="2406.45" y="965.65" type="qcurve"/>
      <point x="2421.2" y="998.1" type="line"/>
      <point x="2518.75" y="998.1" type="line"/>
      <point x="2518.75" y="708.45" type="line"/>
      <point x="2403.35" y="708.45" type="line"/>
      <point x="2386.5" y="796.35" type="line" smooth="yes"/>
      <point x="2375.7" y="845.3"/>
      <point x="2260.7" y="907.6"/>
      <point x="2177.45" y="907.6" type="qcurve" smooth="yes"/>
      <point x="2094.6" y="907.6"/>
      <point x="2021.55" y="849.75"/>
      <point x="2021.55" y="798.75" type="qcurve" smooth="yes"/>
      <point x="2021.55" y="746.5"/>
      <point x="2100.7" y="686.1"/>
      <point x="2249.7" y="641.35" type="qcurve" smooth="yes"/>
      <point x="2413.2" y="591.65"/>
      <point x="2589.95" y="440.45"/>
      <point x="2589.95" y="297.05" type="qcurve" smooth="yes"/>
      <point x="2589.95" y="159.45"/>
      <point x="2384.95" y="-24.4"/>
      <point x="2210.6" y="-24.4" type="qcurve" smooth="yes"/>
      <point x="2104.55" y="-24.4"/>
      <point x="1952.5" y="23.8"/>
      <point x="1896.6" y="64.0" type="qcurve"/>
      <point x="1867.95" y="10.05" type="line"/>
    </contour>
  </outline>
</glyph>
<glyph name="dong" format="2">
  <advance width="1305"/>
  <unicode hex="20AB"/>
  <outline>
    <contour>
      <point x="63.45" y="473.15" type="qcurve" smooth="yes"/>
      <point x="63.45" y="715.4"/>
      <point x="345.75" y="1003.35"/>
      <point x="566.15" y="1003.35" type="qcurve" smooth="yes"/>
      <point x="648.95" y="1003.35"/>
      <point x="800.45" y="959.7"/>
      <point x="849.1" y="925.7" type="qcurve"/>
      <point x="843.2" y="1378.5" type="line"/>
      <point x="688.8" y="1392.0" type="line"/>
      <point x="688.8" y="1500.0" type="line"/>
      <point x="1040.3" y="1534.0" type="line"/>
      <point x="1070.6" y="1534.0" type="line"/>
      <point x="1107.0" y="1496.75" type="line"/>
      <point x="1104.0" y="527.15" type="line"/>
      <point x="1112.65" y="175.5" type="line"/>
      <point x="1276.6" y="180.5" type="line"/>
      <point x="1276.6" y="83.0" type="line"/>
      <point x="909.7" y="0.0" type="line"/>
      <point x="874.8" y="119.1" type="line"/>
      <point x="853.8" y="134.2" type="line"/>
      <point x="804.4" y="73.9"/>
      <point x="639.6" y="-9.0"/>
      <point x="518.0" y="-9.0" type="qcurve" smooth="yes"/>
      <point x="322.4" y="-9.0"/>
      <point x="63.45" y="248.45"/>
    </contour>
    <contour>
      <point x="345.8" y="493.85" type="qcurve" smooth="yes"/>
      <point x="345.8" y="314.9"/>
      <point x="486.7" y="141.15"/>
      <point x="609.6" y="141.15" type="qcurve" smooth="yes"/>
      <point x="698.15" y="141.15"/>
      <point x="816.0" y="214.45"/>
      <point x="850.75" y="269.35" type="qcurve"/>
      <point x="855.0" y="504.05" type="line"/>
      <point x="854.65" y="760.35" type="line"/>
      <point x="821.3" y="807.45"/>
      <point x="708.25" y="865.5"/>
      <point x="629.25" y="865.5" type="qcurve" smooth="yes"/>
      <point x="500.65" y="865.5"/>
      <point x="345.8" y="670.35"/>
    </contour>
    <contour>
      <point x="125.0" y="-286.5" type="line"/>
      <point x="125.0" y="-124.0" type="line"/>
      <point x="645.0" y="-128.0" type="line"/>
      <point x="1175.0" y="-124.0" type="line"/>
      <point x="1175.0" y="-286.5" type="line"/>
      <point x="646.0" y="-282.5" type="line"/>
    </contour>
    <contour>
      <point x="496.0" y="1115.5" type="line"/>
      <point x="497.0" y="1253.5" type="line"/>
      <point x="938.5" y="1250.5" type="line"/>
      <point x="1250.05" y="1253.5" type="line"/>
      <point x="1250.05" y="1115.5" type="line"/>
      <point x="937.5" y="1119.5" type="line"/>
    </contour>
  </outline>
</glyph>
<glyph name="euro" format="2">
  <advance width="1192"/>
  <unicode hex="20AC"/>
  <outline>
    <contour>
      <point x="204.0" y="746.0" type="qcurve" smooth="yes"/>
      <point x="204.0" y="1141.4"/>
      <point x="561.5" y="1520.0"/>
      <point x="819.0" y="1520.0" type="qcurve" smooth="yes"/>
      <point x="913.5" y="1520.0"/>
      <point x="1077.7" y="1448.2"/>
      <point x="1134.5" y="1378.0" type="qcurve"/>
      <point x="1067.5" y="1283.5" type="line"/>
      <point x="1015.95" y="1331.85"/>
      <point x="915.5" y="1372.5"/>
      <point x="838.35" y="1372.5" type="qcurve" smooth="yes"/>
      <point x="671.35" y="1372.5"/>
      <point x="493.5" y="1088.5"/>
      <point x="494.5" y="772.0" type="qcurve" smooth="yes"/>
      <point x="495.5" y="450.0"/>
      <point x="679.8" y="104.0"/>
      <point x="851.0" y="104.0" type="qcurve" smooth="yes"/>
      <point x="927.9" y="104.0"/>
      <point x="1054.0" y="160.5"/>
      <point x="1104.65" y="216.55" type="qcurve"/>
      <point x="1163.5" y="133.0" type="line"/>
      <point x="1103.9" y="54.35"/>
      <point x="932.25" y="-28.95"/>
      <point x="790.7" y="-28.95" type="qcurve" smooth="yes"/>
      <point x="532.8" y="-28.95"/>
      <point x="204.0" y="355.15"/>
    </contour>
    <contour>
      <point x="70.0" y="851.0" type="line"/>
      <point x="97.5" y="1001.0" type="line"/>
      <point x="992.0" y="1001.0" type="line"/>
      <point x="1025.5" y="851.0" type="line"/>
    </contour>
    <contour>
      <point x="56.5" y="524.0" type="line"/>
      <point x="49.0" y="674.0" type="line"/>
      <point x="1014.5" y="674.0" type="line"/>
      <point x="981.0" y="524.0" type="line"/>
    </contour>
  </outline>
</glyph>
<glyph name="tenge" format="2">
  <advance width="1331"/>
  <unicode hex="20B8"/>
  <outline>
    <contour>
      <point x="46.5" y="730.95" type="line"/>
      <point x="46.5" y="1177.55" type="line"/>
      <point x="1284.45" y="1177.55" type="line"/>
      <point x="1284.45" y="730.95" type="line"/>
      <point x="1161.85" y="730.95" type="line"/>
      <point x="1125.1" y="1045.55" type="line"/>
      <point x="827.5" y="1045.55" type="line"/>
      <point x="810.6" y="1026.95" type="line"/>
      <point x="809.65" y="580.0" type="line"/>
      <point x="811.3" y="146.15" type="line"/>
      <point x="1018.8" y="110.5" type="line"/>
      <point x="1018.8" y="0.0" type="line"/>
      <point x="311.45" y="0.0" type="line"/>
      <point x="311.45" y="110.5" type="line"/>
      <point x="518.95" y="146.15" type="line"/>
      <point x="520.95" y="580.0" type="line"/>
      <point x="520.0" y="1026.95" type="line"/>
      <point x="508.9" y="1045.55" type="line"/>
      <point x="205.5" y="1045.55" type="line"/>
      <point x="168.75" y="730.95" type="line"/>
    </contour>
    <contour>
      <point x="47.8" y="1350.0" type="line"/>
      <point x="75.3" y="1500.0" type="line"/>
      <point x="1248.35" y="1500.0" type="line"/>
      <point x="1281.85" y="1350.0" type="line"/>
    </contour>
  </outline>
</glyph>
<glyph name="manat" format="2">
  <advance width="1501"/>
  <unicode hex="20BC"/>
  <outline>
    <contour>
      <point x="1481.0" y="119.6" type="line"/>
      <point x="1481.0" y="0.0" type="line"/>
      <point x="895.5" y="0.0" type="line"/>
      <point x="895.5" y="119.6" type="line"/>
      <point x="1065.5" y="151.85" type="line"/>
      <point x="1070.5" y="506.0" type="line"/>
      <point x="1066.5" y="908.5" type="line" smooth="yes"/>
      <point x="1064.5" y="1100.5"/>
      <point x="897.5" y="1268.5"/>
      <point x="722.0" y="1268.5" type="qcurve" smooth="yes"/>
      <point x="564.5" y="1268.5"/>
      <point x="384.15" y="1085.5"/>
      <point x="382.5" y="888.5" type="qcurve" smooth="yes"/>
      <point x="380.5" y="506.0" type="line"/>
      <point x="382.5" y="151.85" type="line"/>
      <point x="570.5" y="119.6" type="line"/>
      <point x="570.5" y="0.0" type="line"/>
      <point x="12.0" y="0.0" type="line"/>
      <point x="12.0" y="119.6" type="line"/>
      <point x="190.0" y="151.85" type="line"/>
      <point x="192.0" y="506.0" type="line"/>
      <point x="189.0" y="907.0" type="line" smooth="yes"/>
      <point x="187.0" y="1167.0"/>
      <point x="498.0" y="1431.0"/>
      <point x="744.0" y="1431.0" type="qcurve" smooth="yes"/>
      <point x="1029.0" y="1431.0"/>
      <point x="1314.65" y="1154.5"/>
      <point x="1313.0" y="915.5" type="qcurve" smooth="yes"/>
      <point x="1311.0" y="506.0" type="line"/>
      <point x="1313.0" y="151.85" type="line"/>
    </contour>
    <contour>
      <point x="636.0" y="260.0" type="line"/>
      <point x="653.0" y="662.0" type="line"/>
      <point x="655.0" y="1350.0" type="line"/>
      <point x="626.0" y="1530.0" type="line"/>
      <point x="830.0" y="1600.0" type="line"/>
      <point x="802.0" y="1350.0" type="line"/>
      <point x="806.0" y="762.0" type="line"/>
      <point x="830.0" y="330.0" type="line"/>
    </contour>
  </outline>
</glyph>
<glyph name="f_f_l" format="2">
  <advance width="2130"/>
  <unicode hex="FB04"/>
  <outline>
    <contour>
      <point x="46.65" y="0.0" type="line"/>
      <point x="46.65" y="94.0" type="line"/>
      <point x="205.55" y="129.0" type="line"/>
      <point x="208.95" y="535.75" type="line"/>
      <point x="207.0" y="857.9" type="line"/>
      <point x="57.5" y="873.05" type="line"/>
      <point x="49.25" y="980.7" type="line"/>
      <point x="208.65" y="1001.5" type="line"/>
      <point x="210.55" y="1184.3" type="line" smooth="yes"/>
      <point x="211.8" y="1333.15"/>
      <point x="376.5" y="1492.5"/>
      <point x="510.8" y="1492.5" type="qcurve" smooth="yes"/>
      <point x="573.8" y="1492.5"/>
      <point x="683.6" y="1475.3"/>
      <point x="719.8" y="1464.45" type="qcurve" smooth="yes"/>
      <point x="745.1" y="1457.05" type="line"/>
      <point x="734.7" y="1332.9" type="line"/>
      <point x="715.55" y="1339.2" type="line" smooth="yes"/>
      <point x="696.0" y="1345.85"/>
      <point x="651.5" y="1354.25"/>
      <point x="630.1" y="1354.25" type="qcurve" smooth="yes"/>
      <point x="563.1" y="1354.25"/>
      <point x="483.5" y="1268.9"/>
      <point x="484.15" y="1169.95" type="qcurve" smooth="yes"/>
      <point x="485.1" y="998.65" type="line"/>
      <point x="924.0" y="998.65" type="line"/>
      <point x="925.9" y="1276.45" type="line" smooth="yes"/>
      <point x="925.85" y="1395.4"/>
      <point x="1078.85" y="1535.25"/>
      <point x="1213.15" y="1535.25" type="qcurve" smooth="yes"/>
      <point x="1255.95" y="1535.25"/>
      <point x="1346.3" y="1526.55"/>
      <point x="1381.95" y="1519.15" type="qcurve" smooth="yes"/>
      <point x="1452.9" y="1503.5" type="line"/>
      <point x="1855.15" y="1534.0" type="line"/>
      <point x="1893.9" y="1532.7" type="line"/>
      <point x="1928.8" y="1496.1" type="line"/>
      <point x="1926.8" y="527.0" type="line"/>
      <point x="1928.8" y="129.0" type="line"/>
      <point x="2079.45" y="94.0" type="line"/>
      <point x="2079.45" y="0.0" type="line"/>
      <point x="1505.15" y="0.0" type="line"/>
      <point x="1505.15" y="94.0" type="line"/>
      <point x="1647.15" y="129.0" type="line"/>
      <point x="1649.15" y="527.0" type="line"/>
      <point x="1647.15" y="1373.65" type="line"/>
      <point x="1409.5" y="1396.45" type="line" smooth="yes"/>
      <point x="1395.6" y="1398.1"/>
      <point x="1356.85" y="1400.5"/>
      <point x="1342.95" y="1400.5" type="qcurve" smooth="yes"/>
      <point x="1271.85" y="1400.5"/>
      <point x="1199.5" y="1333.35"/>
      <point x="1199.5" y="1265.6" type="qcurve" smooth="yes"/>
      <point x="1200.45" y="998.65" type="line"/>
      <point x="1481.2" y="998.65" type="line"/>
      <point x="1481.2" y="880.9" type="line"/>
      <point x="1200.1" y="872.0" type="line"/>
      <point x="1201.05" y="535.75" type="line"/>
      <point x="1211.55" y="129.0" type="line"/>
      <point x="1369.55" y="94.0" type="line"/>
      <point x="1369.55" y="0.0" type="line"/>
      <point x="785.0" y="0.0" type="line"/>
      <point x="785.0" y="94.0" type="line"/>
      <point x="920.9" y="129.0" type="line"/>
      <point x="924.3" y="535.75" type="line"/>
      <point x="922.35" y="850.75" type="line"/>
      <point x="906.05" y="870.7" type="line"/>
      <point x="484.75" y="875.25" type="line"/>
      <point x="485.7" y="535.75" type="line"/>
      <point x="496.2" y="129.0" type="line"/>
      <point x="648.35" y="94.0" type="line"/>
      <point x="648.35" y="0.0" type="line"/>
    </contour>
  </outline>
</glyph>
<glyph name="che.bgr" format="2">
  <advance width="1375"/>
  <outline>
    <contour>
      <point x="192.8" y="847.25" type="line"/>
      <point x="46.9" y="877.25" type="line"/>
      <point x="46.9" y="984.9" type="line"/>
      <point x="392.75" y="1018.2" type="line"/>
      <point x="442.8" y="1018.2" type="line"/>
      <point x="474.1" y="977.65" type="line"/>
      <point x="470.3" y="721.85" type="line" smooth="yes"/>
      <point x="469.024382455925" y="606.857091221685"/>
      <point x="576.2" y="515.4"/>
      <point x="697.1" y="515.4" type="qcurve" smooth="yes"/>
      <point x="792.75" y="515.4"/>
      <point x="938.2" y="539.25"/>
      <point x="1023.1" y="568.8" type="qcurve"/>
      <point x="1023.1" y="459.0" type="line"/>
      <point x="933.2" y="427.0"/>
      <point x="752.15" y="394.05"/>
      <point x="617.5" y="394.05" type="qcurve" smooth="yes"/>
      <point x="419.35" y="394.05"/>
      <point x="195.60843189306001" y="549.471309047275"/>
      <point x="194.45" y="719.4" type="qcurve" smooth="yes"/>
    </contour>
    <contour>
      <point x="1165.15" y="977.65" type="line"/>
      <point x="1160.7" y="509.4" type="line"/>
      <point x="1162.7" y="129.0" type="line"/>
      <point x="1310.7" y="94.0" type="line"/>
      <point x="1310.7" y="0.0" type="line"/>
      <point x="722.0" y="0.0" type="line"/>
      <point x="722.0" y="94.0" type="line"/>
      <point x="883.15" y="129.0" type="line"/>
      <point x="885.5" y="508.75" type="line"/>
      <point x="883.85" y="847.25" type="line"/>
      <point x="744.45" y="877.25" type="line"/>
      <point x="744.45" y="984.9" type="line"/>
      <point x="1083.8" y="1018.2" type="line"/>
      <point x="1133.85" y="1018.2" type="line"/>
    </contour>
  </outline>
</glyph>
<glyph name="dblgravecomb.case" format="2">
  <advance width="1024"/>
  <outline>
    <contour>
      <point x="75.65" y="1929.3" type="qcurve" smooth="yes"/>
      <point x="75.65" y="1965.7"/>
      <point x="141.2" y="2017.45"/>
      <point x="179.4" y="2017.45" type="qcurve" smooth="yes"/>
      <point x="219.2" y="2017.45"/>
      <point x="285.45" y="1952.85"/>
      <point x="320.25" y="1907.95" type="qcurve" smooth="yes"/>
      <point x="502.0" y="1672.2" type="line"/>
      <point x="426.25" y="1595.15" type="line"/>
      <point x="161.55" y="1803.2" type="line" smooth="yes"/>
      <point x="120.05000000000001" y="1836.2"/>
      <point x="75.65" y="1884.75"/>
    </contour>
    <contour>
      <point x="476.15" y="1929.3" type="qcurve" smooth="yes"/>
      <point x="476.15" y="1965.7"/>
      <point x="541.7" y="2017.45"/>
      <point x="579.9" y="2017.45" type="qcurve" smooth="yes"/>
      <point x="619.7" y="2017.45"/>
      <point x="686.6" y="1952.85"/>
      <point x="721.4" y="1907.95" type="qcurve" smooth="yes"/>
      <point x="902.5" y="1672.2" type="line"/>
      <point x="826.75" y="1595.15" type="line"/>
      <point x="562.05" y="1803.2" type="line" smooth="yes"/>
      <point x="520.55" y="1836.2"/>
      <point x="476.15" y="1884.75"/>
    </contour>
  </outline>
</glyph>
<glyph name="diagonalbarO" format="2">
  <advance width="696"/>
  <outline>
    <contour>
      <point x="29.4" y="-121.3" type="line"/>
      <point x="86.4" y="86.7" type="line"/>
      <point x="104.4" y="81.7" type="line"/>
      <point x="310.4" y="871.7" type="line"/>
      <point x="432.4" y="803.7" type="line"/>
      <point x="239.4" y="54.7" type="line"/>
      <point x="259.4" y="50.7" type="line"/>
      <point x="216.4" y="-108.3" type="line"/>
    </contour>
    <contour>
      <point x="481.4" y="1618.7" type="line"/>
      <point x="666.4" y="1618.7" type="line"/>
      <point x="613.4" y="1424.7" type="line"/>
      <point x="592.4" y="1428.7" type="line"/>
      <point x="432.4" y="803.7" type="line"/>
      <point x="310.4" y="871.7" type="line"/>
      <point x="458.4" y="1455.7" type="line"/>
      <point x="438.4" y="1460.7" type="line"/>
    </contour>
  </outline>
</glyph>
<glyph name="diagonalbaro" format="2">
  <advance width="512"/>
  <outline>
    <contour>
      <point x="-18.2" y="-122.0" type="line"/>
      <point x="39.150000000000006" y="86.0" type="line"/>
      <point x="68.35" y="77.5" type="line"/>
      <point x="209.25" y="586.5" type="line"/>
      <point x="322.15" y="526.55" type="line"/>
      <point x="195.3" y="55.75" type="line"/>
      <point x="228.25" y="50.0" type="line"/>
      <point x="177.95" y="-125.0" type="line"/>
    </contour>
    <contour>
      <point x="330.85" y="1159.0" type="line"/>
      <point x="534.05" y="1159.0" type="line"/>
      <point x="477.9" y="955.55" type="line"/>
      <point x="444.3" y="962.7" type="line"/>
      <point x="322.15" y="526.55" type="line"/>
      <point x="209.25" y="586.5" type="line"/>
      <point x="319.05" y="989.35" type="line"/>
      <point x="287.85" y="997.5" type="line"/>
    </contour>
  </outline>
</glyph>
<glyph name="dotaccentcomb.case" format="2">
  <advance width="1024"/>
  <outline>
    <contour>
      <point x="378.75" y="1785.0" type="qcurve" smooth="yes"/>
      <point x="378.75" y="1848.3"/>
      <point x="447.4" y="1915.6"/>
      <point x="512.35" y="1915.6" type="qcurve" smooth="yes"/>
      <point x="573.3" y="1915.6"/>
      <point x="645.95" y="1843.6"/>
      <point x="645.95" y="1785.0" type="qcurve" smooth="yes"/>
      <point x="645.95" y="1722.05"/>
      <point x="578.0" y="1654.4"/>
      <point x="512.35" y="1654.4" type="qcurve" smooth="yes"/>
      <point x="451.4" y="1654.4"/>
      <point x="378.75" y="1726.05"/>
    </contour>
  </outline>
</glyph>
<glyph name="eight.lc" format="2">
  <advance width="1141"/>
  <outline>
    <contour>
      <point x="42.0" y="327.75" type="qcurve" smooth="yes"/>
      <point x="42.0" y="487.9"/>
      <point x="286.05" y="696.05"/>
      <point x="473.4" y="746.75" type="qcurve"/>
      <point x="555.9" y="686.2" type="line"/>
      <point x="440.5" y="634.75"/>
      <point x="281.0" y="457.75"/>
      <point x="281.0" y="334.0" type="qcurve" smooth="yes"/>
      <point x="281.0" y="217.65"/>
      <point x="429.3" y="94.05"/>
      <point x="557.9" y="94.05" type="qcurve" smooth="yes"/>
      <point x="677.15" y="94.05"/>
      <point x="832.8" y="226.15"/>
      <point x="832.8" y="331.0" type="qcurve" smooth="yes"/>
      <point x="832.8" y="425.25"/>
      <point x="713.6" y="548.95"/>
      <point x="531.3" y="623.2" type="qcurve" smooth="yes"/>
      <point x="322.35" y="706.75"/>
      <point x="156.05" y="891.55"/>
      <point x="160.45" y="1033.25" type="qcurve" smooth="yes"/>
      <point x="164.85" y="1182.4"/>
      <point x="416.25" y="1366.3"/>
      <point x="620.35" y="1366.3" type="qcurve" smooth="yes"/>
      <point x="812.05" y="1366.3"/>
      <point x="1030.6" y="1206.7"/>
      <point x="1031.9" y="1084.85" type="qcurve" smooth="yes"/>
      <point x="1033.2" y="956.35"/>
      <point x="853.2" y="783.15"/>
      <point x="692.15" y="720.55" type="qcurve"/>
      <point x="592.0" y="777.65" type="line"/>
      <point x="694.45" y="832.05"/>
      <point x="814.9" y="972.85"/>
      <point x="814.9" y="1064.1" type="qcurve" smooth="yes"/>
      <point x="814.9" y="1146.65"/>
      <point x="701.15" y="1244.15"/>
      <point x="608.95" y="1244.15" type="qcurve" smooth="yes"/>
      <point x="517.55" y="1244.15"/>
      <point x="393.1" y="1146.0"/>
      <point x="393.1" y="1068.0" type="qcurve" smooth="yes"/>
      <point x="393.1" y="983.25"/>
      <point x="508.3" y="875.7"/>
      <point x="706.1" y="800.6" type="qcurve" smooth="yes"/>
      <point x="907.65" y="724.05"/>
      <point x="1102.1" y="537.15"/>
      <point x="1102.1" y="374.7" type="qcurve" smooth="yes"/>
      <point x="1102.1" y="205.35"/>
      <point x="806.25" y="-22.75"/>
      <point x="550.9" y="-22.75" type="qcurve" smooth="yes"/>
      <point x="300.6" y="-22.75"/>
      <point x="42.0" y="163.55"/>
    </contour>
  </outline>
</glyph>
<glyph name="engtail" format="2">
  <advance width="769"/>
  <outline>
    <contour>
      <point x="450.5" y="190.0" type="line"/>
      <point x="663.4" y="190.0" type="line"/>
      <point x="663.4" y="-159.65" type="line" smooth="yes"/>
      <point x="663.4" y="-283.1"/>
      <point x="508.8" y="-443.0"/>
      <point x="358.6" y="-443.0" type="qcurve" smooth="yes"/>
      <point x="262.45" y="-443.0"/>
      <point x="96.05" y="-381.0"/>
      <point x="44.15" y="-328.3" type="qcurve"/>
      <point x="105.4" y="-223.55" type="line"/>
      <point x="147.75" y="-262.1"/>
      <point x="225.55" y="-292.45"/>
      <point x="266.9" y="-292.45" type="qcurve" smooth="yes"/>
      <point x="317.2" y="-292.45"/>
      <point x="386.1" y="-230.0"/>
      <point x="386.1" y="-137.35" type="qcurve" smooth="yes"/>
      <point x="386.1" y="-58.35"/>
      <point x="386.1" y="150.0"/>
      <point x="386.1" y="150.0" type="qcurve"/>
    </contour>
  </outline>
</glyph>
<glyph name="five.lc" format="2">
  <advance width="968"/>
  <outline>
    <contour>
      <point x="649.95" y="84.65" type="qcurve" smooth="yes"/>
      <point x="646.7" y="228.85"/>
      <point x="434.45" y="357.6"/>
      <point x="273.9" y="359.0" type="qcurve" smooth="yes"/>
      <point x="143.7" y="360.4" type="line"/>
      <point x="88.15" y="441.95" type="line"/>
      <point x="161.35" y="1058.75" type="line"/>
      <point x="187.7" y="1091.75" type="line"/>
      <point x="861.95" y="1091.75" type="line"/>
      <point x="855.65" y="887.25" type="line"/>
      <point x="279.35" y="887.25" type="line"/>
      <point x="270.0" y="876.25" type="line"/>
      <point x="248.3" y="693.6"/>
      <point x="227.05" y="518.15"/>
      <point x="201.95" y="476.3" type="qcurve"/>
      <point x="395.3" y="510.5" type="line"/>
      <point x="639.2" y="507.85"/>
      <point x="925.7" y="308.05"/>
      <point x="927.45" y="111.5" type="qcurve" smooth="yes"/>
      <point x="929.9" y="-129.9"/>
      <point x="547.25" y="-399.45"/>
      <point x="227.9" y="-399.45" type="qcurve" smooth="yes"/>
      <point x="166.55" y="-399.45"/>
      <point x="32.4" y="-386.15"/>
      <point x="-7.5" y="-372.55" type="qcurve"/>
      <point x="27.2" y="-251.75" type="line"/>
      <point x="67.85" y="-258.85"/>
      <point x="144.0" y="-264.65"/>
      <point x="194.8" y="-264.65" type="qcurve" smooth="yes"/>
      <point x="414.55" y="-264.65"/>
      <point x="653.85" y="-89.2"/>
    </contour>
  </outline>
</glyph>
<glyph name="five.tab" format="2">
  <advance width="1148"/>
  <outline>
    <contour>
      <point x="49.2" y="135.3" type="qcurve"/>
      <point x="120.55" y="260.5" type="line"/>
      <point x="174.9" y="209.05"/>
      <point x="338.95" y="126.25"/>
      <point x="453.45" y="128.85" type="qcurve" smooth="yes"/>
      <point x="573.1" y="131.45"/>
      <point x="736.55" y="281.8"/>
      <point x="736.55" y="451.35" type="qcurve" smooth="yes"/>
      <point x="736.55" y="610.55"/>
      <point x="511.0" y="774.3"/>
      <point x="314.95" y="774.3" type="qcurve" smooth="yes"/>
      <point x="218.7" y="774.3" type="line"/>
      <point x="181.85" y="823.05" type="line"/>
      <point x="237.15" y="1467.0" type="line"/>
      <point x="263.5" y="1500.0" type="line"/>
      <point x="971.55" y="1500.0" type="line"/>
      <point x="959.1" y="1269.05" type="line"/>
      <point x="350.4" y="1269.05" type="line"/>
      <point x="338.65" y="1255.6" type="line"/>
      <point x="300.8" y="896.6" type="line"/>
      <point x="461.95" y="934.9" type="line"/>
      <point x="735.85" y="942.95"/>
      <point x="1043.05" y="709.6"/>
      <point x="1043.05" y="483.25" type="qcurve" smooth="yes"/>
      <point x="1043.05" y="245.75"/>
      <point x="742.75" y="-23.4"/>
      <point x="518.25" y="-23.4" type="qcurve" smooth="yes"/>
      <point x="358.1" y="-23.4"/>
      <point x="111.1" y="68.8"/>
    </contour>
  </outline>
</glyph>
<glyph name="four.lc" format="2">
  <advance width="1216"/>
  <outline>
    <contour>
      <point x="694.35" y="-384.75" type="line"/>
      <point x="700.9" y="130.9" type="line"/>
      <point x="700.55" y="819.85" type="line"/>
      <point x="222.3" y="217.65" type="line"/>
      <point x="226.2" y="204.85" type="line"/>
      <point x="1222.25" y="187.95" type="line"/>
      <point x="1222.25" y="72.7" type="line"/>
      <point x="59.25" y="61.35" type="line"/>
      <point x="39.9" y="174.7" type="line"/>
      <point x="769.6" y="1103.15" type="line"/>
      <point x="939.2" y="1073.15" type="line"/>
      <point x="974.95" y="1043.15" type="line"/>
      <point x="969.3" y="132.9" type="line"/>
      <point x="968.95" y="-384.75" type="line"/>
    </contour>
  </outline>
</glyph>
<glyph name="gravecombstack.case" format="2">
  <advance width="1024"/>
  <outline>
    <contour>
      <point x="276.5" y="1841.7" type="qcurve" smooth="yes"/>
      <point x="271.6" y="1882.4"/>
      <point x="331.45" y="1953.4"/>
      <point x="366.45" y="1959.35" type="qcurve" smooth="yes"/>
      <point x="406.65" y="1964.95"/>
      <point x="499.35" y="1898.15"/>
      <point x="542.8" y="1844.4" type="qcurve" smooth="yes"/>
      <point x="705.5" y="1647.75" type="line"/>
      <point x="627.1" y="1572.8" type="line"/>
      <point x="365.1" y="1741.6" type="line" smooth="yes"/>
      <point x="326.15" y="1763.75"/>
      <point x="281.4" y="1811.1"/>
    </contour>
  </outline>
</glyph>
<glyph name="horncomb.case" format="2">
  <advance width="1024"/>
  <outline>
    <contour>
      <point x="309.5" y="1474.0" type="line"/>
      <point x="345.6" y="1470.5"/>
      <point x="388.5" y="1466.65"/>
      <point x="428.5" y="1466.65" type="qcurve" smooth="yes"/>
      <point x="482.35" y="1466.65"/>
      <point x="559.5" y="1513.35"/>
      <point x="559.5" y="1573.25" type="qcurve" smooth="yes"/>
      <point x="559.5" y="1612.0"/>
      <point x="549.25" y="1707.5"/>
      <point x="542.5" y="1757.0" type="qcurve"/>
      <point x="676.0" y="1757.0" type="line"/>
      <point x="697.45" y="1711.0"/>
      <point x="734.0" y="1586.3"/>
      <point x="734.0" y="1514.5" type="qcurve" smooth="yes"/>
      <point x="734.0" y="1420.8"/>
      <point x="586.45" y="1331.0"/>
      <point x="490.0" y="1331.0" type="qcurve" smooth="yes"/>
      <point x="450.0" y="1331.0"/>
      <point x="347.9" y="1340.55"/>
      <point x="309.5" y="1351.45" type="qcurve"/>
    </contour>
  </outline>
</glyph>
<glyph name="hungarumlautcomb.case" format="2">
  <advance width="1024"/>
  <outline>
    <contour>
      <point x="561.5" y="1929.3" type="qcurve" smooth="yes"/>
      <point x="561.5" y="1884.75"/>
      <point x="517.1" y="1836.2"/>
      <point x="475.6" y="1803.2" type="qcurve" smooth="yes"/>
      <point x="210.9" y="1595.15" type="line"/>
      <point x="135.15" y="1672.2" type="line"/>
      <point x="316.25" y="1907.95" type="line" smooth="yes"/>
      <point x="351.05" y="1952.85"/>
      <point x="417.95" y="2017.45"/>
      <point x="457.75" y="2017.45" type="qcurve" smooth="yes"/>
      <point x="495.95" y="2017.45"/>
      <point x="561.5" y="1965.7"/>
    </contour>
    <contour>
      <point x="962.0" y="1929.3" type="qcurve" smooth="yes"/>
      <point x="962.0" y="1884.75"/>
      <point x="917.6" y="1836.2"/>
      <point x="876.1" y="1803.2" type="qcurve" smooth="yes"/>
      <point x="611.4" y="1595.15" type="line"/>
      <point x="535.65" y="1672.2" type="line"/>
      <point x="717.4" y="1907.95" type="line" smooth="yes"/>
      <point x="752.2" y="1952.85"/>
      <point x="818.45" y="2017.45"/>
      <point x="858.25" y="2017.45" type="qcurve" smooth="yes"/>
      <point x="896.45" y="2017.45"/>
      <point x="962.0" y="1965.7"/>
    </contour>
  </outline>
</glyph>
<glyph name="macroncombstack.case" format="2">
  <advance width="1024"/>
  <outline>
    <contour>
      <point x="196.4" y="1669.8" type="line"/>
      <point x="196.4" y="1839.1" type="line"/>
      <point x="827.6" y="1839.1" type="line"/>
      <point x="827.6" y="1669.8" type="line"/>
    </contour>
  </outline>
</glyph>
<glyph name="nine.lc" format="2">
  <advance width="1204"/>
  <outline>
    <contour>
      <point x="1141.45" y="604.65" type="qcurve" smooth="yes"/>
      <point x="1143.55" y="238.8"/>
      <point x="639.7" y="-308.65"/>
      <point x="262.2" y="-396.45" type="qcurve"/>
      <point x="218.65" y="-283.3" type="line"/>
      <point x="498.65" y="-196.1"/>
      <point x="848.35" y="261.45"/>
      <point x="848.35" y="614.25" type="qcurve" smooth="yes"/>
      <point x="848.35" y="814.45"/>
      <point x="710.55" y="999.05"/>
      <point x="588.6" y="999.05" type="qcurve" smooth="yes"/>
      <point x="469.75" y="999.05"/>
      <point x="327.3" y="838.65"/>
      <point x="327.65" y="681.9" type="qcurve" smooth="yes"/>
      <point x="328.0" y="549.8"/>
      <point x="441.15" y="439.05"/>
      <point x="529.9" y="439.05" type="qcurve" smooth="yes"/>
      <point x="581.0" y="439.05"/>
      <point x="669.3" y="463.25"/>
      <point x="700.85" y="483.25" type="qcurve"/>
      <point x="732.5" y="401.0" type="line"/>
      <point x="688.1" y="357.15"/>
      <point x="543.2" y="300.8"/>
      <point x="460.5" y="300.8" type="qcurve" smooth="yes"/>
      <point x="274.25" y="300.8"/>
      <point x="60.2" y="499.7"/>
      <point x="59.15" y="667.15" type="qcurve" smooth="yes"/>
      <point x="57.75" y="876.15"/>
      <point x="360.85" y="1121.7"/>
      <point x="593.7" y="1121.7" type="qcurve" smooth="yes"/>
      <point x="852.65" y="1121.7"/>
      <point x="1140.4" y="850.6"/>
    </contour>
  </outline>
</glyph>
<glyph name="one.lc" format="2">
  <advance width="861"/>
  <outline>
    <contour>
      <point x="70.35" y="0.0" type="line"/>
      <point x="70.35" y="99.85" type="line"/>
      <point x="324.85" y="134.85" type="line"/>
      <point x="324.85" y="540.5" type="line"/>
      <point x="322.85" y="932.8" type="line"/>
      <point x="68.35" y="966.8" type="line"/>
      <point x="68.35" y="1076.3" type="line"/>
      <point x="577.65" y="1099.3" type="line"/>
      <point x="609.65" y="1064.3" type="line"/>
      <point x="603.65" y="540.5" type="line"/>
      <point x="603.65" y="134.85" type="line"/>
      <point x="858.15" y="99.85" type="line"/>
      <point x="858.15" y="0.0" type="line"/>
    </contour>
  </outline>
</glyph>
<glyph name="seven.lc" format="2">
  <advance width="1022"/>
  <outline>
    <contour>
      <point x="67.25" y="714.15" type="line"/>
      <point x="81.55" y="1091.75" type="line"/>
      <point x="1005.25" y="1091.75" type="line"/>
      <point x="1005.25" y="970.65" type="line"/>
      <point x="695.05" y="240.95" type="line"/>
      <point x="459.2" y="-384.75" type="line"/>
      <point x="222.65" y="-384.75" type="line"/>
      <point x="222.65" y="-308.6" type="line"/>
      <point x="527.7" y="277.2" type="line"/>
      <point x="818.75" y="873.55" type="line"/>
      <point x="797.7" y="895.15" type="line"/>
      <point x="216.65" y="895.15" type="line"/>
      <point x="182.05" y="714.15" type="line"/>
    </contour>
  </outline>
</glyph>
<glyph name="seven.lf" format="2">
  <advance width="1047"/>
  <outline>
    <contour>
      <point x="33.45" y="1054.6" type="line"/>
      <point x="47.75" y="1500.0" type="line"/>
      <point x="1053.95" y="1500.0" type="line"/>
      <point x="1053.95" y="1378.9" type="line"/>
      <point x="730.75" y="636.2" type="line"/>
      <point x="505.65" y="-17.55" type="line"/>
      <point x="260.1" y="-17.55" type="line"/>
      <point x="260.1" y="58.6" type="line"/>
      <point x="570.4" y="672.45" type="line"/>
      <point x="854.25" y="1253.0" type="line"/>
      <point x="826.7" y="1274.6" type="line"/>
      <point x="189.35" y="1274.6" type="line"/>
      <point x="154.75" y="1054.6" type="line"/>
    </contour>
  </outline>
</glyph>
<glyph name="shcha.bgr" format="2">
  <advance width="2105"/>
  <outline>
    <contour>
      <point x="930.7" y="168.85" type="line"/>
      <point x="857.95" y="76.45"/>
      <point x="646.45" y="-21.7"/>
      <point x="520.35" y="-21.7" type="qcurve" smooth="yes"/>
      <point x="354.8" y="-21.7"/>
      <point x="190.0" y="132.55"/>
      <point x="190.0" y="262.9" type="qcurve" smooth="yes"/>
      <point x="190.0" y="334.2"/>
      <point x="193.95" y="475.3"/>
      <point x="193.95" y="491.55" type="qcurve" smooth="yes"/>
      <point x="189.65" y="847.25" type="line"/>
      <point x="43.75" y="877.25" type="line"/>
      <point x="43.75" y="984.9" type="line"/>
      <point x="390.65" y="1018.2" type="line"/>
      <point x="440.7" y="1018.2" type="line"/>
      <point x="472.0" y="977.65" type="line"/>
      <point x="470.35" y="481.75" type="line"/>
      <point x="470.35" y="309.0" type="line" smooth="yes"/>
      <point x="470.35" y="245.45"/>
      <point x="561.15" y="153.6"/>
      <point x="643.55" y="153.6" type="qcurve" smooth="yes"/>
      <point x="713.85" y="153.25"/>
      <point x="862.55" y="221.2"/>
      <point x="906.5" y="286.0" type="qcurve"/>
    </contour>
    <contour>
      <point x="1625.0" y="31.2" type="line"/>
      <point x="1601.0" y="142.45" type="line"/>
      <point x="1539.8" y="68.85"/>
      <point x="1338.9" y="-21.7"/>
      <point x="1225.35" y="-21.7" type="qcurve" smooth="yes"/>
      <point x="1059.8" y="-21.7"/>
      <point x="895.0" y="132.55"/>
      <point x="895.0" y="262.9" type="qcurve" smooth="yes"/>
      <point x="895.0" y="334.2"/>
      <point x="898.95" y="475.3"/>
      <point x="898.95" y="491.55" type="qcurve" smooth="yes"/>
      <point x="894.65" y="847.25" type="line"/>
      <point x="748.75" y="877.25" type="line"/>
      <point x="748.75" y="984.9" type="line"/>
      <point x="1095.65" y="1018.2" type="line"/>
      <point x="1145.7" y="1018.2" type="line"/>
      <point x="1177.0" y="977.65" type="line"/>
      <point x="1175.35" y="481.75" type="line"/>
      <point x="1175.35" y="309.0" type="line" smooth="yes"/>
      <point x="1175.35" y="245.45"/>
      <point x="1264.4" y="153.6"/>
      <point x="1345.05" y="153.6" type="qcurve" smooth="yes"/>
      <point x="1413.6" y="153.25"/>
      <point x="1557.4" y="221.55"/>
      <point x="1601.0" y="286.0" type="qcurve"/>
      <point x="1602.0" y="481.75" type="line"/>
      <point x="1600.0" y="847.25" type="line"/>
      <point x="1462.7" y="877.25" type="line"/>
      <point x="1462.7" y="984.9" type="line"/>
      <point x="1800.65" y="1018.2" type="line"/>
      <point x="1850.7" y="1018.2" type="line"/>
      <point x="1882.0" y="977.65" type="line"/>
      <point x="1880.0" y="481.75" type="line"/>
      <point x="1882.0" y="124.6" type="line"/>
      <point x="2037.45" y="124.6" type="line"/>
      <point x="2047.45" y="-318.0" type="line"/>
      <point x="1934.45" y="-318.0" type="line"/>
      <point x="1841.95" y="0.0" type="line"/>
      <point x="1666.65" y="0.0" type="line"/>
    </contour>
  </outline>
</glyph>
<glyph name="tildecomb.case" format="2">
  <advance width="1024"/>
  <outline>
    <contour>
      <point x="107.1" y="1756.05" type="line"/>
      <point x="143.75" y="1827.85"/>
      <point x="289.85" y="1945.4"/>
      <point x="369.65" y="1945.4" type="qcurve" smooth="yes"/>
      <point x="415.3" y="1945.4"/>
      <point x="495.55" y="1917.15"/>
      <point x="537.9" y="1889.85" type="qcurve" smooth="yes"/>
      <point x="569.3" y="1870.8"/>
      <point x="664.2" y="1817.95"/>
      <point x="710.5" y="1817.95" type="qcurve" smooth="yes"/>
      <point x="755.8" y="1817.95"/>
      <point x="840.1" y="1872.85"/>
      <point x="865.75" y="1911.85" type="qcurve"/>
      <point x="933.4" y="1823.7" type="line"/>
      <point x="891.75" y="1738.9"/>
      <point x="757.65" y="1645.35"/>
      <point x="691.85" y="1645.35" type="qcurve" smooth="yes"/>
      <point x="639.2" y="1645.35"/>
      <point x="533.25" y="1692.95"/>
      <point x="501.6" y="1713.55" type="qcurve" smooth="yes"/>
      <point x="463.85" y="1738.2"/>
      <point x="383.65" y="1774.1"/>
      <point x="351.0" y="1774.1" type="qcurve" smooth="yes"/>
      <point x="298.35" y="1774.1"/>
      <point x="201.4" y="1697.9"/>
      <point x="181.4" y="1668.25" type="qcurve"/>
    </contour>
  </outline>
</glyph>
<glyph name="tildecombstack.case" format="2">
  <advance width="1024"/>
  <outline>
    <contour>
      <point x="134.4" y="1756.05" type="line"/>
      <point x="168.45" y="1827.85"/>
      <point x="304.8" y="1945.4"/>
      <point x="379.4" y="1945.4" type="qcurve" smooth="yes"/>
      <point x="422.45" y="1945.4"/>
      <point x="496.85" y="1917.15"/>
      <point x="536.6" y="1889.85" type="qcurve" smooth="yes"/>
      <point x="566.05" y="1870.8"/>
      <point x="655.1" y="1817.95"/>
      <point x="698.15" y="1817.95" type="qcurve" smooth="yes"/>
      <point x="740.2" y="1817.95"/>
      <point x="819.3" y="1872.85"/>
      <point x="843.0" y="1911.85" type="qcurve"/>
      <point x="906.1" y="1823.7" type="line"/>
      <point x="867.7" y="1738.9"/>
      <point x="742.05" y="1645.35"/>
      <point x="680.8" y="1645.35" type="qcurve" smooth="yes"/>
      <point x="631.4" y="1645.35"/>
      <point x="532.6" y="1692.95"/>
      <point x="502.9" y="1713.55" type="qcurve" smooth="yes"/>
      <point x="467.75" y="1738.2"/>
      <point x="392.75" y="1774.1"/>
      <point x="362.05" y="1774.1" type="qcurve" smooth="yes"/>
      <point x="312.65" y="1774.1"/>
      <point x="222.2" y="1697.9"/>
      <point x="203.5" y="1668.25" type="qcurve"/>
    </contour>
  </outline>
</glyph>
